<?xml version="1.0" encoding="UTF-8"?>
<!-- Created with Inkscape (http://www.inkscape.org/) -->
<svg width="1006.7" height="932" version="1.1" viewBox="0 0 1006.7 932" xmlns="http://www.w3.org/2000/svg">
 <path d="m303.1 904.85-4.4741-0.50458-7.3774-2.7602-5.6744-3.5495-6.2432-5.1875-6.5938-8.9513-1.3643-2.7078-1.3643-2.7078-1.6289-5.2922-1.6289-5.2922-1.5099-8.0803v-14.697l1.391-7.889 0.69168-3.6667 0.69169-3.6667 1.3162-4.5286 1.3162-4.5285-2.6084-4.2762-2.5827-4.6667-2.7476-7.3568-0.95496-7.6432h-2.6057l-10.241 4.2386-9.1574 5.428-9.5093 8.1024-5.0642 6.2004-5.0773 8.3639-1.14 4.5519-1.14 4.5518 0.73625 3.433 0.73625 3.433 1.6353 2.7904 1.6353 2.7904 2.1726 1.3057 2.1726 1.3057 3.6274 0.85348 5.4537-1.2254 5.5541-3.6755-5.3019-2.3838-2.1646-1.7544-1.4152-2.3215-1.4152-2.3216-4e-3 -6.7175 3-5.8719 5.0752-4.038 9.0309-0.51029 6.7202 3.4054 3.5554 4.2254 1.8992 3.6728 0.72062 4.5109 0.72061 4.5109-0.76155 3.7395-0.76155 3.7395-3.6778 8.0202-7.0656 7.7309-6.6912 3.3907-6.7645 2.0847-9.3333 0.0292-7.3333-1.7792-7.1593-3.1403-8.438-6.8461-5.4835-7.8173-3.751-8.3395-1.0841-4.3759-1.0841-4.3759 5e-3 -8.6241 5e-3 -8.6241 1.3534-5.6459 1.3534-5.6459 4.8066-12.042 2.0318-3.6667 2.0318-3.6667 6.2756-9.3333 4.7037-5.223-0.33063-6.0551-0.33062-6.0552-0.98795-2.3548-0.98794-2.3547-8.5601-1.6238h-18.687l-10.348 2.8086-10.092 5.2146-8.2345 8.133-4.2662 8.6658-0.54642 7.5543 1.9372 4.6238 3.8136 4.5231 5.3885 2.4476 5.7095 0.0292 4.6238-1.932v-0.82078l-4.0479-3.4061-0.97606-1.8875-0.97605-1.8875 0.0292-5.7329 2.5149-5.5387 2.9532-1.7307 2.9516-1.7305h8.4324l5.5551 3.2555 3.5194 5.3182 1.5505 6.1575-0.64574 8.9355-4.2287 8.3611-6.8159 6.5696-8.8176 4.5898-7.0656 1.4795-7.601-0.016-6.6735-1.7774-6.2154-2.7494-7.2597-5.3631-4.9386-5.761-3.9679-6.9253-3.1697-9.0747-0.78403-5.6667-0.78404-5.6667 0.45089-5.3333 0.45089-5.3333 0.99172-4.3333 0.99171-4.3333 3.2906-9.5772 5.8093-11.756 6.6267-9.3333 8.9562-9.649 10.825-8.1567 7.3601-4.1942 6.6613-2.8642 0.13905-0.56789 0.13905-0.5679-8.2328-5.4116-3.3333-5.9218 0.16263-6.1057 0.16262-6.1057-8.9919-4.273-13.333-4.085-20.667-0.0386-9.3333 2.3945-8.6366 3.4266-9.4643 5.7459-6.7518 7.1391-3.0173 5.9022-1.7808 6.6667-0.0079 1.8083-0.0079 1.8083 1.3851 3.7021 1.3851 3.7021 1.6987 2.0188 1.6987 2.0188 5.1125 2.6082h5.4293l4.4256-1.8492 1.4746-2.0709 1.4746-2.0709-0.41484-0.67122-0.41483-0.67122h-2.6542l-3.8649-1.9986-3.6339-4.7642-0.5222-6.9038 1.5436-2.9507 1.5436-2.9507 4.6459-2.432h7.4484l7.2387 3.6667 4.8281 6.4616 2.3419 7.7348-0.56858 11.892-3.7324 7.2448-6.202 6.4097-9.4681 4.695-8.8652 1.0994-8.3333-1.0639-7.633-2.89-7.7464-5.7026-5.0629-5.8809-4.6359-7.8715-3.333-9.9289-1.0575-12.533 0.53237-6.3096 0.53237-6.3096 1.4342-4.8159 1.4342-4.8159 4.4262-9.4156 7.0436-10 9.6023-9.5108 12.463-8.6627 10.667-5.2928 9.3333-3.5126 10.667-2.7234 15.333-2.7326 23.107-0.77036 4.226-3.1153 11.601-5.6795 0.066-2.4275-2.6316-3.1209-2.6316-3.1209-2.0702-4.9546v-2.8992l-4.867-11.477-2.8266-4.0168-2.8266-4.0168-9.1544-8.633-11.462-6.8709-7.1967-3.2711-12.094-4.202-7.239-1.88-11.147-2.1093-14.186 0.02-8.6667 1.9857-8.6667 3.5683-7.4641 5.0052-6.2641 6.9672-3.1883 6.7873-1.6014 6.4377 0.36814 4.8676 0.36814 4.8676 3.6635 7.7441 5.4862 5.4862 3.3159 1.6317 3.316 1.6314h11.333l4-2.3002 2.102-0.79485 2.0803-3.5717 0.91794-5.5664-2.7144-2.7144-7.2914-2.1196-4.6858-5.1866-0.45726-2.4374-0.45726-2.4374 1.5223-5.081 4.5654-4.0084 8.7362-0.93557 6.3486 0.93728 6.4047 3.4672 4.5375 5.0225 1.3286 2.6044 1.3286 2.6044 0.81668 4.4322 0.81667 4.4323-0.76931 4.1601-0.76932 4.1601-4.6892 9.5091-8.6227 8.0661-8.7214 4.1624-8.9943 1.906-9.0971 0.0232-11.57-2.8175-7.3333-3.9759-5.4226-4.4292-2.5689-2.5554-2.5689-2.5554-5.7782-7.8207-3.8607-8.1793-2.3218-7.3333-1.1123-2.2623-0.7722-7.6167-0.7722-7.6168 1.5307-14.619 4.1308-13.218 4.0248-7.9753 6.1075-9.358 11.77-11.728 10.281-6.7195 10.829-5.1755 11.838-3.4597 17.333-2.5779 18.055-6e-3 15.945 2.0534 10 2.0192 6 1.4111 12.667 4.0404 10 3.9264 12.667 6.38 10.667 6.2368 2.1995 1.5081 7.6225-1.7058-1.822-1.6558-9.3333-5.799-37.767-23.748h-1.11l-6.4564 3.2953-6.1872 1.6089-9.0824-2.4585-5.5825-5.1458-1.643-3.9665-10.838-0.0292-5.3333-2.5724-4.1576-3.7317-1.207-2.3333-1.207-2.3333-0.38082-2.2608-0.38081-2.2608-1-0.51398-1-0.51399-6.2529-2.1967-4.0875-4.1808-1.2927-2.7031-1.2927-2.7032-0.65784-6-0.0415-0.16667-0.0415-0.16666h-2.0662l-4.2671-2.1493-4.4471-4.1841-2.151-4-0.06154-5.6114-0.06154-5.6114-4.7517-3.0073-3.9858-5.1032-1.5413-4.5323v-4.9354l0.74776-2.145 0.74776-2.145-3.3433-3.5756-2.1522-4.2671 0.0074-7.7329 1.328-4.7807-5.1122-5.374-1.73-6.1789 0.65695-5.8284 2.115-4.2396-0.37062-0.96581-0.37062-0.96582h-1.1345l-3.3895-5.7838v-9.237l2.5102-4.6459-2.1587-4 0.0089-5.1378 0.0089-5.1378 4.3505-6.172-2.7197-7.2691v-4.1286l1.601-5.3435 4.0657-4.3108v-12.602l3.6855-4.8344 3.7252-2.2005-0.03867-5.4837-0.03867-5.4837 3.9448-5.2298 0.50309-0.21405 0.50309-0.21404-0.79286-10.282 2.8296-5.5465 4.4874-3.4227 0.37182-4.9162 0.37182-4.9162 2.1423-4.1428 2.9723-1.904 5.8886-1.553 5.7414 1.6075 4.6572 4.523 1.5358 5.6473-0.82588 20-0.4217 15.667-0.4217 15.667 0.77265 12.333 0.77266 12.333 1.2828 9.3333 1.0402 7.3333 1.0402 7.3333 2.6614 13.333 4.0104 16 5.3926 17.333 7.4199 18.667 8.6842 17.333 3.9903 6.6667 3.9903 6.6667 6.663 10 11.459 15.273 5.3333 5.9439 2.6667 2.8086 5.2017 3.863 29.954 24.501 7.6602 5.202 10.517 5.257 7.5386 2.1516h2.1281v-2.2014l-9.7938-12.132-10.59-14.667-8.772-13.333-8.8168-14.97-12.517-25.188-8.1776-20.675v-2.0881l-0.83334-0.52313-0.83333-0.52313-6-0.38629-7.2029-2.0757-7.5626-7.5704-1.1173-3.2854-1.1173-3.2854v-6.2846l-3.4441-0.86442-5.1163-3.2298-3.3025-4.3837-1.0685-3.19-1.0685-3.19v-3.2525l-3.6667-1.9076-2.9172-3.1267-2.7201-6-0.0146-3.9683-0.0146-3.9683-3.8772-4.0635-3.0062-5.3333-0.5801-10.667 2.2185-6 0.37817-1.2098 0.37818-1.2098-4.0288-4.2472-1.2274-2.3333-1.2274-2.3333 0.0155-4.6667 0.0155-4.6667 3.7469-6.866-1.4271-1.9302-1.4271-1.9302-1.9356-7.2735-8e-3 -2.8083-8e-3 -2.8083 1.3607-3.6368 1.3607-3.6368 5.1007-5.7478-2.4887-5.806v-6.3885l0.99167-2.8107 0.99168-2.8107 2.069-2.6123 2.069-2.6123-2.1213-6.2258v-4.6078l0.73593-2.4563 0.73593-2.4563 3.5281-3.9489 3.8692-2.7576-0.14456-5.4687-0.14455-5.4687 3.293-5.5981 1.6669-1.5568 1.6669-1.5568 5.1264-1.7583 0.47011-6.0077 0.4701-6.0077 1.3852-2.9468 1.3852-2.9468 4.4558-4.3187 5.167-1.7704 0.72832-10.463 1.7656-2.7617 1.7656-2.7617 3.948-2.8113 5.6805-2.4125-0.31146-9.6031 1.7499-3.8249 1.7499-3.8249 6.8231-6.4098 0.174-9.7124 3.6637-7.4884 4.9294-3.7814 3.7294-1.6081h7.1199l6.4506 4.3333 3.6778 7.3333 0.0112 7.0872 0.0112 7.0872-1.3435 8.9128-1.3435 8.9128-1.6154 6.7163-1.6154 6.7163-6.9248 18.567-7.9328 22.667-6.4555 18.667-5.3493 18-0.99772 4.3333-0.99771 4.3333-0.98868 5-0.98869 5-1.0233 7-1.0234 7-1.4763 10.667-0.37045 16.333-0.37045 16.333 0.72114 8.3333 0.72114 8.3333 1.391 12 1.283 6.6667 2.6498 14 3.4199 13.154 6.5022 19.513 1.9999 5 1.9999 5 2.1076 4.6667 2.1076 4.6667 8.4885 16.8 8.3232 13.867 4.3337 6.3333 4.3337 6.3333 8.0188 10.667 7.4153 8.6667 7.3341 7.8688 3.6024 3.778 6.1748-2.6468h1.6228l1.4657-1.4657-8.248-10.216-8.2844-13.714v-0.47226l-5.1613-11.132-2.3806-6-2.3806-6-6.6686-20.667-0.99671-3.6667-0.99671-3.6667-1.0189-4.3333-1.0189-4.3333-1.0082-4.3333-1.0082-4.3333-2.7602-16-1.2798-10.667-0.62027-6-0.62028-6-0.18961-10.536-0.1896-10.536-0.35074-0.53135-0.35073-0.53136-3.118-1.643-5.319-4.8054-3.3297-6.5709 0.30272-4.7568 0.30273-4.7568 0.88366-3.3333-3.564-4-3.1584-7.038 7e-3 -4.1477 7e-3 -4.1476 3.3754-7.2514-4.9166-9.6864 0.72134-10.524 2.0917-4.0449 3.5468-4.2152-2.4028-7.6113 0.0343-4.0615 0.0342-4.0615 1.8629-4.1512 1.8629-4.1512 6.279-5.5747-1.0812-8.6667 1.2768-5.7811 1.2642-2.478 1.2642-2.478 4.2591-4.164 3.9574-1.6392-0.5537-2.3964-0.55371-2.3964 0.0885-3.7716 0.0885-3.7716 3.3178-7.1235 4.4326-4.4403 5.0174-2.5597h1.891l0.7292-4.9028 0.72921-4.9028 1.7142-3.2639 1.7142-3.2639 2.9418-3.3482 4.7524-3.6212 5.2476-1.0844 0.35063-4.3064 0.35063-4.3064 2.7957-6.1192 5.0349-5.0349 5.4682-2.4833 2.9213-0.0292 0.33879-0.54818 0.3388-0.54817-0.58944-4.1701-0.58943-4.1701 1.1729-7.2066 2.3793-5.0236 5.7328-5.7402-1.3666-1.9192-1.3666-1.9192-1.9719-5.5891v-5.2085l1.8252-4.3683-5.0195-4.2142-2.8056-5.7957v-6.2885l0.9866-2.1453 0.9866-2.1452 1.661-2.2927-4.1432-4.3739-1.6998-2.7476-1.6998-2.7476-0.64342-3.54-0.64341-3.54 0.87323-3.3791 0.8722-3.3792 5.5799-4.9642 4.5591-0.85529 8.7706 0.93925 10.837 9.5469 10.935 10.982 7.8562 9.6845 6.7566 11.333 3.2994 7.3333 3.5717 10.667 0.61771 2 0.61772 2 2.0421 12.667 3e-3 7.1664 3e-3 7.1664-1.0475 6.167-1.0475 6.167-0.99374 3.6667-0.99375 3.6667-0.5522 1.3333-0.55221 1.3333-4.4143 10.535-8.1486 14.132-10.647 14.669-2.2123 2.6642-17.412 21.974-10.531 14.692-9.635 16-7.1459 14.259v0.64771l-3.8719 8.4264-6.0146 16.667-3.319 12-2.7136 11.333-2.1575 12-2.1466 16-0.0551 16.667-0.0558 16.667 1.7658 15.333 1.9545 10.333 1.9545 10.333 1.2307 4.6667 2.8598 10 2.9685 8.5925 2.9685 8.5925 4.8911 11.482 9.045 17.699 8.1879 12.968 1.507 2.6151 0.66667 0.77083 0.66666 0.77083 7.3333 10.168 1.1824 8e-3 9.8571-9.9213 7.2185-3.5317 7.8305-0.71005 6.9749 1.4958 5.1791 2.5022 4.7359 2.927-0.0482-36.606 0.46467-5.1279 0.46468-5.1279-9.8596 1.0998-12.667-0.1796-10.552-1.6115-9.9188-3.3314-8.1958-4.7836-8.0939-8.0939-4.7151-8.0789-2.8116-7.5146-2.0962-9.0386-0.93165-4.6839-0.93164-4.6839-2.0866-16.723v-8.3428l0.9353-1.8087 0.9353-1.8087 5.7961-3.1844 11.726-0.6313 9.3487 2.2722 7.5922 3.3179 12 6.0492 11.274 7.3422 10.146 7.7237 10.979 10.328 1.0662-1.2006 5.5761-17.896-1.7083-1.084-8.6667-0.0298-10.667-2.5696-7.8054-3.4656-7.6586-5.2009-6.4061-7.0879-3.8033-8.0793-0.9954-3.8216-0.99539-3.8216-0.36818-8.8054-0.36818-8.8055-0.71307-5.6667-0.71307-5.6667-2.3659-6.3002-6.1918-8.677-1.9413-5.5022 0.38943-2.4354 0.38944-2.4354 1.5469-2.0987 2.7627-1.471 11.237 2.4869 9.0859 3.4539 16.247 7.7859 14 9.3056 8.2436 6.6402 9.108 8.5807 7.9816 8.9993 1.4211 7.4e-4 3.1606-5.6667 5.7874-9.0694-0.78113-1.2639h-2.8361l-8.7518-2.1719-12-5.6064-10.784-8.1581-6.2039-7.2617-2.3622-3.5676-2.3622-3.5676-4.494-9.3333-4.2057-14-3.1862-10.667-4.7353-17.464v-3.5647l3.2599-1.4853 8.6808 2.1806h11.341l11.052 2.6033 9.865 3.4747 6.8017 3.4194 10.887 7.0655 10.306 9.7703 8.4919 11.333 3.6882 7.5 3.6882 7.5h0.59346l13.895-14.333-0.23261-0.23561-0.23262-0.2356-10.754-3.0347-3.7518-2.247-3.7517-2.2463-6.5811-5.8692-5.2889-7.7882-2.502-5.8369-1.0606-4.14-1.0606-4.14v-9.1429l0.97749-4.208 0.97749-4.208 1.2518-3.6667 1.2518-3.6667 5.4555-13.333 1.7301-5.9785 1.7302-5.9785 0.63465-6.0215 0.63465-6.0215 0.0115-5.818 0.0115-5.818 3.2231-2.1118 5.318 1.432 8.0662 5.3864 8.899 9.5961 6.2932 9.3333 5.995 10.667 7.7201 14.667 3.6318 6.6667 11.019 20.667 1.2263 1.3245 3.6088-2.1475 10.667-6.3749 3.7345-2.2467-5.7345-3.782-8.5217-8.1068-4.2772-6.6667-3.5619-8.9626-1.3566-7.0374-0.0622-10 2.0846-9.8746 2.0203-4.3173 2.0203-4.3173 7.4546-10.639 7.1668-8.9327 4.8016-9.2528 1.7404-1.8333 1.7404-1.8333h6.1658l1.4515 1.3523 1.4515 1.3523 6.8552 10.159 7.1009 14.803 2.3228 7 2.3228 7 2.8932 14 0.34632 12.833 0.34633 12.833h1.0149l12.479-3.2203 12-2.2365 1.6885-0.50976-6.0466-8.2138-5.3236-10.82-0.73031-4-0.7303-4 0.4025-3.9122 0.40251-3.9122 3.5496-7.9095 6.66-5.9879 11.074-6.1661 7.0767-5.5542 7.4182-11.224 7.0077-13.045 1.6504-1.0814 1.6504-1.0814 4.4515 2.1228 3.3506 4.4181 4.643 9.3333 1.7723 5.3333 1.7723 5.3333 1.1698 4 2.3177 12 0.0534 10.667 0.0534 10.667-2.3534 10-5.1976 10.648 0.50526 0.81752 11.046 0.91688 4.6667 0.28439-0.45826-8.8133 1.0772-4.2046 1.0772-4.2045 4.1826-7.3105 8.1213-7.9411 21.27-14.193 7.4985-7.3333 7.6758-10.413 2.9734-1.3548 7.6384 3.6166 3.3446 3.742 3.3446 3.742 4.5678 9.3333 2.02 7.9468v12.106l-2.0269 7.9468-2.7926 6.6667-5.7772 8.6667-7.1498 7.432-7.5869 5.7281v0.85759l11.667 3.8909 1.6667 0.56731v-2.7443l0.94478-3.5325 0.94479-3.5325 2.1136-5.8432 4.1392-7.2346 7.5222-8.1249 6.6996-4.9493 2.6513-1.3465 2.6513-1.3464 6.6667-2.3153 9.3333-1.8383 6.4113-0.00157 9.5887 1.3736 6 1.43 12 3.9689 12.667 5.9302 2 1.1002 0.41496 2.7791-1.958 5.7671-3.4413 7.7814-5.9471 8.8696-9.0686 9.4188-8 5.3888-8.6667 4.7318-8.3992 2.7432-12.267 2.009-3.741 0.37495 12.856 10.476 10.218-4.019 5.3333-1.3678 7.6582-0.90857 9.0085 1.6767 7.0411 3.0873 7.7998 7.4397 3.8258 8.2821-0.016 16.667-4.3081 13.514-5.927 11.82-5.1191 6.8442-4.816 5.3307-9.0636 7.6889-8.3871 3.8029-3.0293-0.0296-3.1026-2.3868-0.57968-6.2918-0.57969-6.2918-1.522-5.3333-4.4441-8-10.208-11.89-3.0974-4.1099-2.716-4.8909-2.084-7.0178v-8.1987l3.3278-6.5593 3e-3 -0.10381 3e-3 -0.10382-13.667-9.7843-14-9.1026-18.25-9.1647-17.755-6.6135-7.9947-2.2071-7.3333-1.9782-10-1.942-14.667-2.2557-30-0.0684-12 1.7126-11.333 2.0598-15.333 3.9622-8 2.748-16.161 6.4109-14.674 7.3592-12.457 7.5537-8.041 5.4291-12 8.9615-8 6.9449-14.215 13.809-10.467 11.707-10.765 14-7.1577 10.667-8.3948 13.836-9.8198 19.497-7.6716 18.541-3.5191 10.396-3.5191 10.396-3.9818 14.667-2.2304 10-0.59669 2.6667-0.59668 2.6667-1.9796 10-1.0409 7-1.0409 7-1.4123 10.667-0.89168 11.667-0.89264 11.667 0.29255 0.3081 0.29256 0.30809 2.9394-1.8819 6.8502-3.7533 10.057-1.6001 0.66157-2.6905 0.66156-2.6905 6.1685-26 1.1277-3.3333 2.9254-10.667 5.7907-18.092 2.796-7.6207 2.796-7.6206 1.1691-2.6667 1.1691-2.6667 3.0064-7.3333 8.7328-18 7.2324-12.667 11.283-16.855 9.5729-11.958 10.615-11.634 14.718-12.918 6-4.7089 10.667-7.3986 13.126-7.679 15.172-7.1566 11.702-4.5273 10.759-3.4395 13.241-3.4602 10.667-1.933 15.333-2.2184 32-0.1132 12.667 1.7962 13.333 2.4738 12.673 3.3073 9.9937 3.5337 1.9681 0.77777 1.968 0.77778 14.2 6.8646 11.198 7.231 8 6.387 8.4545 8.8508 6.5445 8.6667 2.6284 5.0272 2.6284 5.0272 3.5363 10.612 0.34048 7.3333 0.34047 7.3333-1.0592 4.4955-1.0592 4.4955-2.4291 4.8235-2.4291 4.8235-8.6124 8.4862-8.884 4.209-13.627 0.45356-7.0394-2.2844-4.6667-2.8129-5.1087-4.6096-4.0246-7.9728 2e-3 -5.387 2e-3 -5.3869 1.1784-3 1.1784-3 1.8873-2.789 1.8873-2.789 4.234-3.0886 6.0283-2.7272-4.5987-2.8393-10.235-3.4335-16.432 0.0268-12 3.1064-9.8894 4.2356-10.111 6.1148-9.1043 7.4198-9.9837 10.746-6.0938 9.2498-2.8926 5.7169-2.8926 5.7169-1.6942 5.3333-1.6942 5.3333-0.39721 2.4351-0.39721 2.4351 7.8163-2.782 16-0.0836 7.3333 2.5267 6.1156 3.2797 7.2178-5.4777 8.6667-3.3052 14.667-2.1708 8 0.83419 9.2951 1.9673 9.3984 4.4633 1.0262 0.93898 1.0262 0.93898 4.6108 4.2944 7.31-1.9453 9.8075-0.016 8.0858 2.0953 7.4488 3.7601 7.9911 6.0115 3.3547 3.7998 6.3968 8.3423 5.8345 10.991 1.6492 4.6667 1.6492 4.6667 2.2958 9.6667h0.65451l24.832-9.8667 16.667-5.299 6.6667-2.0531 16.667-4.0089 17.333-3.3541 14.667-2.0463 22.667-2.1892 37.333 0.74361 14 2.0358 10.883 1.9552 5.7835 1.4371 5.3333 1.5117 12 3.973 15.039 7.0867 12.997 8.516 11.529 10.285 7.3495 9.0963 7.259 11.177 2.0633 4.4372 2.0634 4.4372 1.6872 5.0264 1.6873 5.0263 0.9957 5.2032 0.9956 5.2032-0.02 16.667-1.6441 6.6057-1.644 6.6057-2.4953 5.3174-2.4953 5.3174-4.3693 6.1538-7.6695 7.7918-8.9571 5.3346-8.3762 2.7458-16.667 0.0686-8-2.4448-6.6667-3.3421-5.588-3.8305-6.6424-6.4699-4.7544-7.4323-3.462-10.421-0.0314-6.6667-0.0314-6.6667 1.0357-3.6667 1.0357-3.6667 0.83409-2.3333 0.83409-2.3333 5.4365-9.1534 5.222-4.9233 5.2235-4.9232h-16.181l-9.5966 2.11-10 3.4117-11.431 5.666-9.9022 6.7428-10.696 9.7361-7.0715 8-11.077 16.667-7.985 16-5.6314 15.333-1.7463 5.3333-3.6412 12.667-0.51574 2.3333-0.51575 2.3333-1.0592 4.6667-1.0592 4.6667-1.2662 6.3333-1.2662 6.3333-1.0465 6-1.0465 6-1.0685 6.3333-1.0685 6.3333-0.5951 2.6667-0.59509 2.6667-0.7937 6-0.62483 3.3333-0.62482 3.3333-4.0708 20.667-4.7131 18-5.3876 16.667-7.7217 18-6.8829 12.593-3.024 4.7037-3.024 4.7037-9.9319 12.277-13.151 12.504-13.1 9.9516-10.222 6.2927-15.112 7.2154-16 5.2978-9.3333 2.0338-7.3333 1.3534-14.164 1.5174-4.8003-1.3254-2.7768 4.4929-4.1161 3.4635-6.1433 3.0549-8.4135 1.7371-9.5865-1.6419-7.7666-2.6796-0.66506 0.66506 0.9556 1.8953 0.95559 1.8953 0.47937 1.9918 0.47938 1.9918-0.0416 5.6721-0.0416 5.672-2.0913 4.3361-2.0913 4.3361-7.7488 7.4678-7.7569 3.8264-7.6667 0.0196-7.6667 0.0195-7.9068-3.7029-5.7656-4.7245-0.27668 0.88034-0.27668 0.88033-0.42505 3.6667-0.42505 3.6667-1.9435 5.7704-1.0468 2.0244-1.0468 2.0244-5.3223 5.774-6.2313 3.8963-8.1653 1.6571-6.8788-1.4752-5.5966-2.8552-8.1491-8.1494-4.8769-10.14v-2.1934h-1.2819l-0.75321 2.8333-0.75322 2.8333-1.7369 3.2129-1.7369 3.2129-8.3151 7.7784-7.756 2.9247-10.17 0.71721-9.3355-2.8356-6.4941-4.4631-5.5241-6.7558-3.046-7.7916-0.56668-11h-0.62425l-8.2389 5.8376-5.3333 2.609-8 2.5534h-16l-7.7277-2.535-6.8746-4.8028-4.0644-5.48-2.2138-4.0818-7.7862 3.2014-11.711 0.0316-6.5731-3.3309-4.5586-4.0025h-1.3725l-8.2525 9-5.1208 8.6667-1.7774 4.3333-1.7774 4.3333-0.58339 1.3333-0.5834 1.3333-0.62279 5.2397-0.62279 5.2396 0.68626 4.427 0.68626 4.427 2.5246 4.9629 4.0826 4.6499 7.1599 3.3872h6.0373l4.6918-2.2374 3.3534-5.0674v-4.5248l-5.2986-0.84727-4.685-4.1135-1.5223-5.0811 0.89224-4.756 1.7757-2.1103 1.7757-2.1103 2.1764-0.90935 2.1763-0.90929h6.6468l3.7294 1.6246 6 4.4718 4.1179 6.237 2.2925 5.8864-0.034 12.436-4.2739 10.266-8.2227 8.2227-8.5465 4.1882-8 1.4845-10-0.7645-8.6667-2.8292-9.389-5.8121-7.4691-7.8306-4.9546-7.7453-1.6678-3.7513-1.6678-3.7513-0.94123-3-0.94122-3-0.97243-5.3333-0.97244-5.3333-0.0246-8.1587 0.98882-5.6704 0.98883-5.6704 0.37814-0.98541 0.37813-0.98542-8.4006-1.5828-5.3333-1.167-6.3157-2.4298-3.9781 4.3555-2.949 4.1472-2.949 4.1472-3.3433 6.0208-3.5848 10.646-0.72028 16.164 1.6163 6.7375 3.4498 5.3203 3.1702 1.4444h3.842l2.0952-2.0952v-2.1122l-3.1357-4.1258-1.1578-2.2477-1.1578-2.2476 0.83772-4.4654 1.6493-1.9601 1.6493-1.9601 6.2192-2.1191 3.4292 0.0202 5.3333 1.6782 4.1002 2.2152 4.8244 5.34 2.3962 4.413 6e-3 6.3333 6e-3 6.3333-3.2908 6.6667-6.2089 6.2298-7.8826 3.9792-6.6177 0.86379-2.6667 0.38489zm252.72-56.164 3.0868-1.6026 3.4518-5.1861 2.296-5.8964 0.38539-5.461 0.3854-5.461-0.82562-4.5908-0.82561-4.5908-0.85526-3.0236-0.85527-3.0236-1.8536-4.643-1.8536-4.643-1.3502-1.8333-1.3502-1.8333-2.0826 0.014-5.6667 5.4192v2.426l2.4851 8.4738 4.3229 15.155-2.6513 2.6513-1.356-0.43036-1.356-0.43037-0.77958-2.1394-0.77957-2.1394-5.089-18.178-0.7551-1.4109-0.75509-1.4109h-6.4531l-4.1667-0.83334v9.2004l3.3658 19.3 3.3729 8.8836 5.3346 7.4497 0.25995 0.02 5.3333 1.9834 4.4931-0.6122zm-55.465-0.78559 3.357-0.99692 5.8614-5.1697 5.5702-10.503 1.1206-4.6667 1.1206-4.6667 0.34556-10.015 0.34555-10.015-2.1316-1.7691-4.371 2.6063-6 1.4505-3.5196 0.73039-0.41682 1.0862-0.41683 1.0862-0.78044 16.172-1.251 5h-3.9232l-0.3621-1.5-0.36209-1.5 0.54882-8.6667 0.54882-8.6667-0.77854-3.9594-5.223-2.7073-8.4331-7.8531-0.89896 0.89896-0.48689 3.8104-0.48689 3.8104-0.7707 8.3333-0.77069 8.3333 0.89052 18.599 1.8457 4.0338 1.8457 4.0338 1.2674 1.0797 1.2674 1.0797 4 1.402 8.0913 0.1052zm102.8-18.17 3.7027-1.1667 4.5481-4.5475 2.6253-5.9349 0.0556-8.8771-2.2135-7.6142-8.7619-15.026-5.1247-6.6667-6.5658-7.3165-1.0923 0.90656-1.0923 0.90655v3.2964l-2.7665 9.1081 0.81194 1.5494 0.81194 1.5494 7.6079 10.667 4.8494 7.1225-1.3616 2.5442h-3.2995l-1.1601-1.3895-1.1601-1.3895-2.4879-2.8877-7.6748-11.362-2.1713-1.802-6.6265 2.8506-6.157 0.84391-0.72902 1.8998 9.6828 18.903 5.7299 8.6667 4.4595 4.2966 5.3078 1.9428 6.5495 0.094zm-158.38-1.3647 0.79327-0.62816 4.6667-1.5182 7.4588-5.6556 4.0318-4.6667 1.6746-3.3333 1.6746-3.3333 3.1023-9.6945 3.1023-9.6945 0.14452-1.9722 0.14453-1.9722h-9.9965l-9.1317 16-4.1194 7.3333-1.8748 3.7161-3.2657 2.1397-3.2787-1.4939v-3.2667l2.181-2.181-1.3711-1.3711-3.0833 1.6501-17.734-0.8016-2.1895 3.3416 0.84103 3.5058 0.84102 3.5058 4.8483 7.2368 2.932 1.6136 2.932 1.6136 2.068 0.53639 2.068 0.5364 9.7468-0.51812zm-104.8-9.4824 3.5881-0.68047 8.0058-3.8922 2.6679-2.4136 2.0886-2.6667 2.0886-2.6667 1.0587-2.5365 1.0587-2.5365 2.0375-10.741-0.02-19.519-1.007-4.3333-1.007-4.3333-5.5259-11.119-4.7736 0.86537-6.8734 0.70347-0.41438 2.2088-0.41437 2.2088 0.70616 3.151 0.70615 3.151 1.5008 2.831 4.4556 5.8584v2.9783l-1.936 1.6067-2.3198-0.44675-5.5886-6.8557-1.4843-4.4603-1.4843-4.4603-0.42875-4.7768-0.42874-4.7768-3.7999 0.26978-2.9577 1.938-1.1214 6.8961-1.1214 6.8961 4e-3 6.0367-1.0378 1.4817-1.0372 1.4817h-2.4278l-1.6903-2.0367 0.80183-7.4816 0.80184-7.4816 0.76224-7.5231-1.7476-1.1451-1.7476-1.1451-1.9561 0.75062-1.6702 3.2961-1.6702 3.2961-6.3804 6.5048-8 6.0946-3.1109 1.644-2.5558-2.3129v-2.2106l3.6667-3.3529 6.844-4.8956 4.8723-5.393 2.2718-4.7641-2.2735-1.898-2.2735-1.898-6.1077-0.75032-4.0947-1.2975h-2.7704l-6.362 12.333-5.068 8.2942-7.3512 15.039-2.1126 6.6667-0.75426 15.586 1.1497 3.5401 1.1496 3.5401 1.7012 2.2459 1.7012 2.2459 6.0663 2.6834 11.412-1.8419h16l12.595 5.2379 7.4048 1.6254 4.1514 0.1366zm59.765-5.6659 2.5319-1.0131 6.6298-8.8686 6.6667-6.974 6.4189-0.96214 11.685 2.3722 6.928-3.7707 5.8674-6.2727 1.0503-3.5366 1.0503-3.5366v-6.4667l-2.7894-8.2913-3.2684-6.9174-6.7574-10.351-18.185-18.403-7.5576 4e-3 -2.109 0.80932v2.3768l4.3389 4.876 9.3277 6.3488 0.41324 3.4994-2.65 1.4182-2.4074-0.9238-8.0225-5.6358-5.2706-5.4356h-1.7294v3.15l3.8377 9.3066 2.079 4.5435 2.1226 5.257-2.5493 2.5493-1.2954-0.41113-1.2954-0.41114-4.818-10.317-3.2906-8-2.1241-0.4311-0.1974 2.4311 0.1603 4.0597 0.1603 4.0597-2.9783 11.214-0.59588 1.1667-0.59589 1.1667h-3.1232l-0.84719-1.0208-0.84718-1.0208 2.8644-10.452v-6.697l-2.109-0.80932-3.5576-0.0416-6.6667-3.2794-1.4414-0.012-0.87208 1.6295-0.87209 1.6295 0.39618 2.5372 0.39619 2.5372 2.1258 10.667 0.64057 10 0.64056 10 0.75012 5.3333 0.75011 5.3333 1.3189 4.3333 1.3189 4.3333 3.0624 6 4.4524 4.1778 4 2.1021 4.3064 0.0534zm142.59-18.367 2.8508-1.3801 1.693-3.5786 1.693-3.5786-0.0292-9.7492-2.5722-5.6667h-1.4435l-3.9885 4.0801-5.6333 2.5572-6.6667 0.0498-1.8387 1.1646 0.0628 3.1302 0.0628 3.1302 3.2 6.8879 2.6407 2.9669 3.2057 1.2819 3.9124 0.0846zm-32.947-0.95753 2.459-1.6709 4.2755-6.2142 0.116-8.1106-12.667-0.66667-4.8712-3.0291-4.6589-5.1568-0.44657-1.407-0.44656-1.407h-3.8149l-1.9992 1.9992-0.46589 3.7288-0.46588 3.7288 0.85 7.2322 0.89546 2.5991 0.89545 2.5991 1.5974 1.9838 1.5974 1.9838 5.2669 3.4786h9.4236zm136.18-0.91496 2.6667-1.2233 1.8003-1.82 1.8003-1.82 2.235-5.8522-0.30397-5.516-0.30398-5.516-1.7255-3.3333-1.7255-3.3333-6.4432-6.2061-8.6667-5.559-13.401-6.6761-4.5988-0.22547-0.1701 5.6667-0.17011 5.6667 1.0069 1.3333 12 7.8425 5.6667 4.5801v2.4141l-0.96801 0.80338-0.96801 0.80337-1.2784-0.40574-1.2784-0.40575-16.484-10.632h-1.7096l-6.9798 3.8465-3.5196 0.80866-0.37308 0.97224-0.37309 0.97224 15.599 15.481 10.667 6.0731 6.6667 2.4151 8.6667 0.0682zm-71.877-7.4585 1.8767-0.71108 3.1267-2.9112 1.0009-1.9245 1.0009-1.9245 0.0554-8.8436-2.7382-5.3673-6.0826-5.6067h-1.9927l-1.436 3.3382-1.436 3.3382-4.6076 4.0455-3.8608 0.77217-0.80608 0.97127-0.80609 0.97127 1.6525 6.1785 4.8064 5.8656 4.1234 2.5144 4.2465 4e-3zm-328.5-7.3826 2.3807-0.76038 7.0884-2.67 7.5783-4.9146 6.514-6.5614 4.6307-7.1623 6.0578-13.504 0.5951-6.3677-1.0655-2.663-1.0655-2.663v-3.8943l-1.4174-0.87598-1.3623 1.232-1.3623 1.232-2.481 4.861-1.3966 5.2362-1.3966 5.2362-2.013 3.0991-2.9043-1.9701 0.17061-3.2312 0.17062-3.2312 2.868-9.7173 1.1241-0.69471v-3.9632l-1.0015-0.3843-1.0015-0.38431-3.0761 0.77205-11.541 8.7051h-3.2168l-1.6067-1.936 0.22172-1.0798 0.22171-1.0798 14.667-10.905 0.2084-1.807 0.20841-1.807-4.913-2.0528h-5.3425l-9.2408 3.3333h-5.7216l-2.0722-0.72238-2.0722-0.72239-0.8313-2.6192 1.4656-1.766 10.311-0.67325 6.3156-2.8847 1.4436-2.6973-0.79456-0.95738-0.79455-0.95739h-1.5272l-5.2042-3.5364-8.7719 2.1745-19.333 5.1511-7.7824 3.8172-6.5036 7.116-0.68659 2.4721-0.6866 2.4722-4e-3 5.7899-4e-3 5.7899 1.2781 3.3616 5.9821 2.7252h1.1117l12.205 7.8929 1.6679 2.5535 1.6679 2.5535 0.98745 2.6667 0.98745 2.6667 0.76664 7.2929 0.76664 7.2929 1.8088 4.3292 5.1035 2.6927 9.2387 0.059zm221.05-1.6204 2.2073-1.0474 8.2115-8.5515-0.41832-0.67684-0.41831-0.67685-7.588-0.0342-11.127-2.5162 0.43034 2.2939 0.43034 2.2939 2.6293 8.296 2.2248 1.6667h1.2103zm47.436-8.6418 1.4421-0.93226 0.45023-2.0499 0.45024-2.0499-0.79263-0.95505-0.79262-0.95505-4.866-0.80572-5.9259-1.9036-1.0491 1.0491-0.37599 1.9792-0.37598 1.9792 2.5343 4.6667 2.263 0.81 2.263 0.81001 3.3333-0.71031zm22.315-0.9651 1.9876-1.9876-0.4112-5.6914-1.3333 0.10545-1.3333 0.10544-8.6361 1.5336-0.50507 0.7944-0.50507 0.79439-0.0204 2.231 3.4519 4.1023h5.3174zm139.91-3.944 4.3333-0.75953 13.333-3.432 7.3333-2.4584 5.3333-2.1707 12-5.8024 15.333-10.339 3.3333-3.0353 3.3333-3.0353 10.41-10.703 7.279-9.5964 6.8367-11.023 2.9801-5.9881 2.9802-5.9881 2.8411-7.3689 2.8411-7.3689 5.3412-18 1.0442-4.3333 1.0442-4.3333 0.98986-4.3333 0.98987-4.3333 3.503-18.667 1.9421-10.667 0.64484-3.6667 0.64483-3.6667 2.7804-15.333 2.7106-13.333 0.55715-2.6667 0.55716-2.6667 0.98854-4 0.98855-4 2.1643-8 1.654-5.3333 1.654-5.3333 1.2504-3.3333 1.2504-3.3333 4.3781-11.333 7.7144-15.333 7.04-10.717 5.6877-7.5881 12.214-12.776 10.099-8.1468 10.667-6.9192 10-5.2637 11.333-4.7612 10.667-3.4874 12.32-2.6829 12.952-1.3431 12.728-0.1126 3.8655 0.99198-0.85185-1.3783-11.014-6.538-11.244-5.0801-9.8735-3.223-9.549-2.5359-12-2.0883-12.947-1.3509-27.053 0.018-22 1.9851-14 1.8962-10.667 1.4836-6.6667 1.3059-13.779 2.6931-16.888 3.9439-11.333 3.224-17.147 5.5468-18.845 7.961-19.341 10.061-14.811 9.728-15.189 11.794-14.695 14.693-10.137 12.667-6.6272 10-4.0877 7.532-2.0041 3.1347 0.97177 5 0.97178 5 1.349 5.963 0.28923 0.28923 0.28923 0.28924 8.2359-9.2082 20.436-20.305 16.342-13.622 15.959-11.821 19.375-12.393 7.3333-4.2218 23.333-11.737 16-6.7982 12.667-4.6783 17.333-5.3547 13.333-3.4973 6.6667-1.3823 9.3333-1.8834 11.333-1.9289 13.206-1.5233 7.7949 0.56384 4.0476 3.8779 0.7416 2.9548-2.4572 4.2297-11.333 7.4052-12.568 10.012-14.609 14.102-11.035 13.761-8.925 13.363-7.7783 14.876-2.27 5.3333-2.27 5.3333-4.0963 12-0.76992 2.6667-0.76993 2.6667-0.99712 4-0.99713 4-1.2113 6.6667-1.2113 6.6667-1.1032 9-1.1033 9-1.2548 10.667-1.0397 8-1.0397 8-2.1397 11.333-1.918 7.3333-1.918 7.3333-0.61673 1.3333-0.61674 1.3333-3.4843 10-8.0784 16-7.378 11.333-9.9526 12.469-8.8484 9.4076-13.333 11.211-12.667 8.4113-3 1.5483v1.4291l-3.9103 8.1906-6.4231 6.4319-7.371 4.4851-10.213 3.334-10.325 1.436-0.61403 0.61404 6.0948 7.4033 1.7617 4.0731 10-0.61623zm11.2-10.099-2.0309-2.0309 0.39526-2.4691 0.39527-2.4691 2.8549-2.3333h4.6066l2.5652 1.3729 2.0138 3.8943v2.5531l-2.7634 3.5132h-6.0058zm23.043-12.082-1.424-0.68949-1.4854-3.2602v-2.9739l2.0016-2.8578 3.7667-0.82731 3.5814 1.3616 0.74224 1.629 0.74223 1.629-0.43461 2.3167-0.43462 2.3167-4.4998 2.1353-1.1318-0.0902zm19.92-20.887-1.5038-1.0813-0.9962-1.9264-0.99619-1.9264v-2.6585l1.5959-1.8554 1.5959-1.8554h5.6164l1.5959 1.8554 1.5959 1.8554v5.1113l-2.3333 2.8549-4.6667 0.70787zm17.504-22.403-1.3333-0.76276-1.6667-2.0891v-4.9817l3.5132-2.7634h4.5475l3.2727 3.2727v4.5796l-2.3333 2.8549-4.6667 0.65253zm13.333-26.033-1.3333-0.72928-1.6667-2.0891v-5.5385l1.2192-1.1033 1.2192-1.1033h5.6223l1.6364 1.6364 1.6364 1.6364v4.7879l-1.6364 1.6364-1.6364 1.6364-3.7273-0.0406zm9.5262-28.139-1.1405-0.86646-1.4408-3.7896 0.41365-1.8834 0.41366-1.8834 1.4289-1.0008 1.4289-1.0008h5.1392l3.8974 3.8974v4.1632l-1.6364 1.6364-1.6364 1.6364-5.7273-0.0424zm5.8664-31.142-1.7259-2.0512v-4.625l3.2727-3.2727h4.5863l4.141 3.8683v4.8453l-2.1533 3.2864h-6.3948zm3.5721-28.986-1.6011-1.7042v-5.4005l3.1174-2.5243h4.2223l1.4551 1.0192 1.455 1.0192 0.8379 4.4664-1.0343 2.0002-1.0344 2.0002-1.0792 0.41413-1.0792 0.41412h-3.6585zm7.3316-27.397-1.0371-0.27992-1.1296-1.9123-1.1296-1.9123v-4.2302l1.9487-1.9487 1.9487-1.9487h4.6215l2.9862 2.4181 0.62922 6.5819-1.702 1.8333-1.702 1.8333-4.397-0.1546zm8.6524-28.847-1.9487-1.9487v-4.7692l1.3164-1.3164 1.3164-1.3164 3.3931-0.85162 3.9299 1.6278 1.5998 1.9276v6.1367l-3.0366 2.4589h-4.6215zm-155.08-0.38668-1.4307-1.0021-0.75591-2.2904-0.75592-2.2904 2.0903-4.0421 2.5652-1.3729h4.1902l3.8974 3.8974v5.8959l-1.2192 1.1033-1.2192 1.1033h-5.9317zm172.52-25.049-2.0513-2.0513v-4.3843l1.3507-1.7172 1.3507-1.7172 2.534-0.80426 4.6608 1.9474 2.19 3.3423 0.0588 2.0664 0.0587 2.0664-3.1029 3.3028h-4.9984zm-144.72 0.91166-1-0.36769-2.3333-2.0327v-6.2534l2.7732-2.5097h5.2201l2.774 2.774 0.728 5.4276-3.4347 3.4347-3.7273-0.1052zm162.52-18.566-1.8166-0.98582-0.68343-1.277-0.68342-1.277v-3.9078l2.7634-3.5131 4.9032 0.0424 2.1156 1.6243 1.6732 3.1404-0.86106 4.5899-4.261 2.5981-1.3333-0.0484zm-133.52-0.9158-1.3333-0.56586-3.1818-3.4253v-5.5776l3.1818-2.4466 5.7273-0.0296 3.2727 3.2727v5.8282l-3 2.8002-3.3333 0.7097zm154.09-20.76-1.7566-1.3817v-5.2972l1.6364-1.6364 1.6364-1.6364h3.8808l3.5131 2.7634v5.8064l-3.5131 2.7634h-3.6404zm-120.67-0.14167-1.1716-0.85672-0.35592-2.6536-0.35592-2.6536 1.329-1.6412 1.329-1.6412h5.4584l1.1602 1.1602 1.1602 1.1602v5.2095l-2.5097 2.7732h-4.8718zm38.042-15.68-1.7914-1.8698v-4.321l1.6364-1.6364 1.6364-1.6364h4.7879l1.6364 1.6364 1.6364 1.6364v4.5475l-2.7634 3.5131h-4.9871zm111.91-2.7543-1.1681-1.2907-0.0669-2.3595-0.0669-2.3595 1.5812-1.6831 1.5812-1.6831h5.6932l3.6299 3.1223v4.1059l-2.253 3.4384h-7.7626zm-68.968-5.3101-2.0705-1.9341v-4.6037l3.2697-3.528h5.3226l1.8705 1.6089 1.8705 1.609v6.2332l-3.1477 2.5489h-5.0446zm41.686-1.4476-1.7566-1.3817v-5.8064l3.5131-2.7634h2.9588l3.528 3.2697v4.7909l-3.2727 3.2727h-3.2141zm-296.17 324.08 1.6781-0.63803 2.0639-3.9911v-4.5531l-2.7634-3.5131h-1.9976l-8.5723 6.117v2.4473l3.3788 4.0155 2.9545 0.57186 1.5799 0.1816zm45.543-2.0936 2.8884-1.3983 1.4571-2.7226 1.068-3.7241-0.69194-2.726-0.69194-2.726-6.8305-7.1252-8.5463-4.1795h-2.4537l-0.0412 1-1.2525 9.6421-1.3044 2.5569-1.3044 2.5569-2.0974 1.7407v3.073l5 4.136 4 1.1741 7.9124 0.1202zm-118.13-6.936 3.3333-1.6113 4.8309-4.7089 0.41788-2.0894 0.41789-2.0894 0.0232-9.5 1.9007-8.9689 2.5933-5.8627 8.6163-9.3891 2.8665-6.0982v-3.8759l-7.3927-7.1386-7.3646-4.9706-8.9093-2.598-12-2.231-10.667-2.6633-9.547-2.1391-3.453 1.5733v9.0681l12.379 2.2938h6.6876l1.6 1.6v3.5778l-2.7346 0.71511-12.755-1.2068-4.8437-1.3454-5.0418-8e-3 -0.36064 0.93983-0.36065 0.93983 2.1604 4.1778 7.0519 4.5111 11.551 5.7286v2.8729l-0.97269 0.80727-0.9727 0.80726-4.3337-0.95183-7.3876-4.0766-8-4.3926-2.7676-0.0302-2.9368 3.1261 0.45043 1.2703 0.45042 1.2703 1.125 2.6667 1.125 2.6667 4.9894 11.424-0.43594 4.5764-4.0732 0.39841-1.4632-3.0651-3.0184-8.6667-1.8989-3.8333-1.8989-3.8333h-1.8275l-2.2393 3.4176-5.9141 2.5351v2.1426l1.6667 1.7122 12.667 13.648 9.9199 8.0179 13.413 8.9408 4 1.5379 4.6667 0.57859 11.333-0.58697zm51.964-2.2606 5.2969-2.1614 10.74-7.2753 5.4875-5.0362 7.7012-11.932 5.4748-10.667 2e-3 -8.9865 2e-3 -8.9865-2.4346-0.47767-5.9502 1.7569-0.30962 1.3469-0.30962 1.3468-1.9955 9.7519-1.4494 3.4574-1.4494 3.4574-6.0889 9.3333-8.0126 8-10.218 5.6017-6.9337 2.2679-21.055-0.82892-0.79371 2.0684v5.4002l4.6627 4.3975 3.0039 0.64745 19.333-0.32094zm41.248-5.5718 1.6131-2.1667 0.43997-1.8589 0.43998-1.8589-0.80313-2.6806-0.80314-2.6806-3.8676-3.2544h-2.5411l-7.3566 10.988v1.5404l4.7131 4.1381h6.5524zm-245.33-5.3761 1.9143-3.8761 0.71766-7.9145-1.1852 6e-3 -3.2796 1.6639-3.2796 1.6635h-3.6635l-6.2211-2.6667h-1.759l-0.73188 2.0995-0.73189 2.0995 0.0204 5.4677 0.97958 1.4847 9.7115 3.0484 0.74575 1.2066 4.8483-0.40644zm20.113 3.1695 3.3333-1.0255 7.5377 0.84802 2.7818-1.4888 2.0138-3.8943v-8.6461l-1.3003-3.4201h-1.4853l-5.746 5.9122-5.3779 1.4481-5.7571-1.4843-3.3333-0.20938 0.0745 4.6667 0.0745 4.6667 0.74234 1.8333 0.74234 1.8333 2.3663-0.014zm311.13-0.55133 3.5325-0.92459 7.971-3.7843 4.029-4.5435 2.5209-3.9124-0.0561-3.958-0.0561-3.958-4.092-7.6612-4.5643-3.1131-8.419-2.6332-20.667-0.70107-15.153 2.6668-1.25 1.25 4.8402 10.197 2.8959 0.1016 25.77 0.98703 1.2095 1.9114 0.0204 2.3619-3.0895 1.4077-25.244-1.2143-2.6667 0.96197-9.7023 9.4167 1.3986 0.74849 1.3986 0.7485 7.5718 2.0877 10 2.3654 18.268 0.116zm-275.94-5.3574 1.4697-1.6153 1.5065-1.998 1.5065-1.998 5.6537-1.8824 0.65415-1.8512 0.65416-1.8512-3.4417-6.1886-3.5828-2-5.6172 6.3234-4.9572 2.0099h-3.3762v2.6631l4.222 9.0036 0.72235 0.48979 0.72234 0.4898 2.3939 0.0204zm-83.997-2.9042 1.0735-1.1862 2.0597-7.9078v-2.9928l-5-0.77249-9.7055-2.8682-0.92155 0.95679-0.92156 0.95679-1.3859 2.5087-1.3859 2.5087-0.40329 2.522-0.40328 2.522 1.8067 0.8232 1.8067 0.82321 1.224-0.38847 1.224-0.38846 5.6853 1.5309 1.6134 1.2691 1.6134 1.2691h0.94687zm313.77-5.8607 3.343-1.8195 1.0885-1.6613 1.0885-1.6613-1.4915-4.978-5.663-5.2197-6.6667-3.2801h-10l0.45186 10.007-2.7845 7.3262-3.4e-4 0.15129-3.3e-4 0.1513 3.3667 2.206 4.2999 1.1063 9.6248-0.5089zm-89.782-1.5046 4.1567-1.8848 7.0594-5.0717 5.0187-7.4921 2.9124-6.3188v-3.9676l-2.8353-1.5174-2.9679 1.3523-0.78408 3.9854-0.78407 3.9854-3.7911 5.2335-5.3865 4.2662-4.4509 1.8319-5.6466 0.92966-6.8208-2.2655-2.064 2.064 0.83858 2.0245 0.83857 2.0245 4.1876 2.6829 6.3626 0.0224zm-170.53-3.5628 1.8403-1.4476 2.4699-5.4381 0.0147-1.4669 0.0146-1.4669-1.0682-0.5978-1.0682-0.5978-5.5302 1.0713-7.588 0.058-0.36057 0.58342-0.36058 0.58343 2.1082 6.4998 3.8887 3.6667h3.7992zm231.41-1.4857 2.2667-2.2667v-3.8367l-1.9539-2.7895-4.3795-2.0255-2.6667-0.78454-0.83729 0.52658-0.83729 0.52657-1.9921 7.6481v3.1927l1.4817 1.0378 1.4817 1.0378h5.17zm-259.7 0.076 1.7026-1.476 2.2614-3.6198v-3.3016l-0.81812-0.50562-0.81811-0.50563-8.1101-1.524-2.7083 1.0019-1.6979 4.0992 0.4344 2.3156 0.43441 2.3156 3.4636 2.7244 4.1535-0.048zm84.963-3.8058 1.7819-4.6631 2.3834-2.9433 4.5028-1.5161v-2.4837l-9.2384-7.759-1.2683 1.2683-2.3875 7.0934-3.654 2.6667-3.3744 2.8179 4.3181 6.7292 3.4528 3.4528h1.7016zm-134.66-2.0042 1.4761-1.3867 1.803-3.6822 1.803-3.6822-0.26356-0.7908-0.26355-0.7908-7.771-2.6667-2.5941-3.5091-1.1922-6.3813-0.28233-0.28233-0.28232-0.28233-2.7227 0.86416-5.9404 5.7734-2.7313 5.3537 1.6272 1.3006 3.3333 0.9831 3.1438 2.8468 3.2435 7.288 1.6127 1.0937 4.5245-0.66221zm104.09 0.29267 1.1191-1.7079 0.126-5.8692-2.0821-2.0827-6.7295 1.5534-3.0457 2.2974 0.42848 1.7072 0.42847 1.7072 3.4522 4.1028h5.1841zm-76.468-3.2681 1.8875-0.97605 3.5316-4.1971-1.5874-1.9128-7.973-4.6729-1.3832 0.20074-1.3832 0.20073-1.5229 2.2653-1.5229 2.2652v5.0394l3.5131 2.7634h4.5531zm390.09-7.0949 5.4114-4.1274 0.38267-0.9972 0.38266-0.9972-2.4715-1.8072h-5.0629l-11.682 4.8144-0.25817 0.23984-0.25816 0.23985 3.9472 3.7059 2.433 3.7336 1.7646-0.67713zm-333.27-2.8861 7.1043-1.6116 10.12-4.6756 9.3944-8.411 6.5371-9.4562 5.7929-11.222 3.1566-7.3333 2.4574-6.6478v-13.272l-0.64692-3.7068-0.64693-3.7068-1.8977-10.833-2.144-4.5182-10.331-11.233-16-11.939-6-2.59-5.3333-1.8108-9.3333-1.9841-9.1556-1.606-8.8444 0.80868-12.667 3.2751-6.7654 2.0786-8.495 5.4906-8.5585 8.1941-5.7215 8-4.0804 8.6667-1.7537 5.3333-1.7537 5.3333-1.0066 13.333 0.52866 4.7761 0.52867 4.7761 1.0686 5.2239 1.0686 5.2239 0.67669 2.6667 0.67668 2.6667 2.5869 5.6521v0.84521l5.8389 8.1693 3.5806 3.3629 3.5806 3.3629 8.1741 4.9407 9.1592 3.5253 9.3333 2.3362 22.667 0.1266zm-22.438-22.726-4-0.85703-4.2729-1.3499-8.0026-4.2654-7.9128-7.5998-2.6685-5.9119-2.1432-6.3799v-11.805l4.6438-14.525 3.188-4.321 3.1682-2.7693 7.3333-3.7137 10-3.0261 12.667-0.0534 11.76 5.8839 7.7559 7.0187 5.7195 14.358 0.2864 6.7069 0.28639 6.7069-1.0968 4.2931-1.0968 4.2931-1.5556 2.357-1.5556 2.357-6.9217 6.7778-7.5049 3.6748-2.0386 0.63411-2.0386 0.6341-7.3333 1.8511-2.6667-0.1114zm61.015 22.336 2.1555-2.0136-0.40096-2.4708-0.40095-2.4708-1.2547-1.6823-1.2547-1.6823-1.1765-0.23105-1.1765-0.23106-7.1723 7.0832v1.6151l4.9705 4.0971h3.5552zm183.95-1.9864h1.1879l3.5964-3.5964 1.676-3.6642 1.676-3.6642-0.81828-4.3618-1.3123-0.81106-8.9694 4.967-3.828 2.6696 0.39607 3.3972 0.39606 3.3972 2.9223 2.3917 1.8893-0.725zm-151.25-2.7182 1.3849-1.3849-0.95512-2.2302-0.64034-7.6498 4.3012-4.018-0.39209-1.0218-0.39209-1.0218-9.0247-4.0729-4.1903-0.70032-0.47636 11.257-1.8333 2.4028-1.8333 2.4028v1.1471l9.4756 6.2752h3.1911zm178.62-0.11592 2.3333-0.8814 4-2.2573 1.3336-1.1802 1.3336-1.1802 2.4802-3.8447-0.58274-8.0563-7.3521-6.8433-8.8418-4.5843-8.1196 7.9952 0.32836 1.6667 0.32835 1.6667 2.3712 9.0985-2.1308 8.1788 0.72882 1.8993 9.4563-0.79594zm71.823-1.1884 4.1768-1.8939v-1.9303l-3.441-2.2547-1.7565 0.67402-9.4691 7.5972v0.6482l6.313-0.94669zm-395.82 0.24566 1.8794-1.1102 0.72347-1.5878 0.72348-1.5878v-1.6335l-2.0485-2.4852-2.0485-2.4852h-4.0363l-4.5333 4.5333v5.9296l1.5 0.72342 1.5 0.72343 4.461 0.0902zm356.66 0.45291 4.3333-0.63086 8.6667-2.8424 7.3333-3.4218 7.627-5.1371 5.8831-5.9675 2.1565-4.5446v-5.8649l-3.4228-5.2787-4.2439-2.774-7.7167-2.8808h-18.511l-11.359 2.6978-2.6851 0.94735-2.6851 0.94734-8.7092 4.0311 5e-3 0.52152 5e-3 0.52153 4.8973 3.3333 4.4581 6.2026 0.96388 0.36987 0.96388 0.36988 11.708-2.0223 9.4339-1.4854 2.2328 0.8568v3.2119l-0.83333 0.63158-0.83333 0.63157-5.3333 1.5174-11.333 1.2904-1.3333 0.47882-1.3333 0.47881-3 2.7004-7e-3 2.0504-7e-3 2.0505-3.208 6.8901 0.77661 0.77661 10.778-0.0264zm-433.33-5.398 6.3333-1.2546 17.198-4.7338 0.61468-0.3799 0.61468-0.37989-0.43635-2.5827-0.43634-2.5827 3.4453-7.5255v-0.50554h-3.1473l-5.1861 3.4876-3.7637 4.5124h-2.3029l-1.6-1.6v-2.7629l4.2211-5.1209 9.2008-5.8975-0.21825-1.1427-0.21825-1.1427-15.319-0.66667-0.20713-1.4549-0.20712-1.4549 3.0809-1.6904 12.667-1.3998 0.21421-1.5089 0.2142-1.5089-4.4284-4.1642-7.2247-4.1512-2.4954-3.3895-0.13997-2.8792-0.13998-2.8792 2.4655-1.5187 3.5345 4.6086 4.2539 4.227 3.6057 0.90497 0.6086-0.60861 0.60861-0.6086 0.76224-7.3854-1.0862-3.1877-1.0862-3.1877v-3.0616l-1.9482-1.0074-1.9481-1.0074-5.7704-1.8745-9.3333-2.1102-12.334-2.0346h-12.996l-12.264 4.0859-5.3665 5.208-4.1847 8.2898 0.29464 3.0664 0.29465 3.0664 7.043 8.6167 3.5133 7.3333 0.21634 8.3338 0.21634 8.3338-1.6347 2.4089-1.6347 2.4089-0.80075 2.4263-0.80076 2.4263 0.43481 1.9797 0.4348 1.9797 4.0618 3.4178 4.1735 2.2123 10.667 0.85444 9.3333-0.58254zm504.54-5.278 5.5947-6.3333 6.6358-9.763-0.35113-0.91502-0.35113-0.91503-5.0701-0.82022-15.333-4.6964-6.7015-2.4265-13.863-6.2306-10.87-6.5421-10.394-9.0244-2.7127-1.9677-1.4583 2.4837-2.1667 3.2259-2.1667 3.2259v1.3655l8.3333 0.0228 9.3333 2.4395 8.502 4.3087 6.4556 6.0385 2.709 7.2405-0.0316 8.95-3.2079 7.8021 0.6261 1.5312 7.3284 4.4452 7.6183 3.1971 5.9472-0.30889zm-456.39 1.7766 6.1855-4.2234 0.44118-2.2722-4.6379-5.1336-0.47226-1.488-0.47227-1.488-5.5296 0.75792-6.6625 2.897-2.9163 2.6608 2.2378 3.2532 2.2378 3.2532 0.46399 2.1699 0.464 2.1699 1.3426 1.6667h1.1324zm155.31-3.5545 1.2104-1.0954v-5.1267l-5.3333-5.3333-2.3333 0.012-5 7.7616v1.3276l3.0007 2.819 1.6663 0.68968 1.6663 0.68969 1.9563-0.32423 1.9563-0.32422zm134.79-5.9535 6.7545-1.7492 12.427-5.8124 9.5734-6.339 12.299-11.864 7.7451-11.504 2.912-6.0587 3.3729-8.9609 1.3705-5.2871 1.3705-5.2871 3.3138-19.073 0.79988-20-1.5564-18-2.0729-11.333-0.98162-4.3333-0.98161-4.3333-3.3824-10.667-4.1087-11.333-7.2622-14-8.1715-12.98-10.667-14.813-8.3148-11.541-0.54208-0.66666-0.54207-0.66667-10.228-15.565-3.3412-6.3105-3.3412-6.3105-4.0572-10.48-3.3635-12.566-0.96827-7.3414-0.96828-7.3414v-13.519l0.99204-7.2827 0.99203-7.2827 0.72268-3 0.72267-3 0.99111-3.6667 0.99111-3.6667 1.7286-4.6667 1.7286-4.6667 2.3579-5 2.3579-5 6.6307-10.667 8.9196-10.683 10-9.317 10.531-7.5539 15.333-8.0004 11.382-3.9742 13.952-3.3985 16.667-1.507 6.6667 0.43234 0.66666-1.3316-18-8.957-18.667-5.9364-9.3333-2.0291-9.3333-1.7442h-35.333l-10.667 1.8175-15.934 3.893-11.399 3.8456-10 4.2232-10 4.8671-11.332 6.5098-12.668 8.6951-13.333 10.988-13.444 13.161-6.5556 7.4665-1.4937 1.7646-1.4937 1.7646-8.917 11.671-9.6105 14.667-8.3833 14.625-3.4457 7.354-3.4457 7.354-1.0532 2.3333-1.0532 2.3333-1.4615 3.6667-1.4615 3.6667-1.6498 4.3333-1.6498 4.3333-0.88661 2.6667-0.88661 2.6667-4.1954 13.333-5.7506 22.667-3.7134 20.138 0.39718 1.035 0.39717 1.035 4.0981 0.90009 12.639-6.1077h1.9294l0.316-1.1667 0.31601-1.1667 1.4748-6.6667 1.4748-6.6667 3.2377-12.667 4.8106-14 5.2322-13.333 10.803-21.836 3.0919-4.5561v-0.65047l6.2884-9.6236 8.572-12 15.696-18.667 10.444-10.131 11.333-9.8823 15.333-11.574 17.333-10.861 22.667-11.156 12.448-4.7289h3.589l2.971 2.0809 2.1104 4.081-0.45052 2.4015-0.45053 2.4015-11.671 12.035-6.6587 8.1375-4.4153 6.6536-4.4153 6.6536-7.2462 14.555-4.7753 12.848-3.4452 13.152-1.2812 8.6667-1.2812 8.6667 0.0254 17.333 1.2596 9 1.2596 9 1.9378 8.6667 3.4722 10.667 8.3647 12.667 7.2236 11.333 15.514 24.667 7.516 12.814 5.9182 11.853 2.8327 6.6667 2.8327 6.6667 1.9359 5.6667 1.9358 5.6667 1.919 7.3333 1.919 7.3333 2.1032 12 1.0013 8.4421 1.0013 8.4421-1.2e-4 10.891-1.1e-4 10.891-0.99527 5.2012-0.99526 5.2012-2.6043 7.9331-4.8177 9.1681-7.0637 8.5636-8.6244 6.8627-9.8991 5.3216-6 1.9693-8.441 2.1126h-7.7833l-1.8216 0.69899 0.26751 6.6602 0.26751 6.6602-2.9881 6.9806-2.4617 3.4838 0.9606 1.0147 18.491-0.81407zm-11.579-4.7348-1-0.361-1.1518-1.4197-1.1518-1.4197-0.0296-3.4869 2.7634-3.5131h4.6305l3.2727 3.2727v2.6645l-1.4804 3.249-3.249 1.4804-1.6039-0.1052zm18.423-4.9155-1.7566-1.3817v-4.2732l2.0756-2.9633h5.2058l2.7186 2.9181v2.3525l-1.4804 3.249-3.249 1.4804h-1.7574zm14.859-9.9003-1.9487-1.9487v-3.2561l2.7634-3.5132h5.0041l2.8991 3.0859v4.8173l-3.5131 2.7634h-3.2561zm12.2-13.089-1.4817-1.0378v-5.8936l3.3274-2.1802 4.6342 0.86938 2.0383 2.9101v3.0973l-1.6364 1.6364-1.6364 1.6364h-3.7639zm6.1772-15.637-1.2144-1.3419v-4.1906l3.0366-2.4589h3.0379l3.0366 2.4589v4.1906l-2.4289 2.6839h-4.2534zm5.9124-13.986-1.4287-0.57654-1.0713-1.5295-1.0713-1.5295v-3.6514l2.9181-2.7186h4.4153l2.6667 2.6667v5.3529l-4.3333 2.6421-0.66667-0.0796zm0.0953-16.802-1.3333-0.75608-0.4898-0.72364-0.48979-0.72365-0.0102-2.3967-0.0102-2.3967 2.4383-2.2066h3.9317l2.9633 2.0756-0.0102 2.4622-0.0102 2.4622-0.97958 1.4671-2.9124 1.5329-1.7543-0.0406zm-2.0303-18.173-1.6364-1.6364v-3.2141l1.3817-1.7566 1.3818-1.7566h4.5699l1.3333 1.3333 1.3333 1.3333v5.2577l-1.4817 1.0378-1.4817 1.0378h-3.7639zm-2.3625-18.944-1.5405-1.2474v-4.7139l1.7632-2.1246h4.9634l2.2066 2.4383v4.1316l-3.5132 2.7634h-2.3391zm-3.7303-15.424-1.4564-0.58681-1.4205-2.6542v-3.2733l2.3333-2.7342 1.3333-0.11689 1.3333-0.11688 3.068 0.1536 1.9023 4.5528-1.4004 4.0171-4.1022 1.43-0.1344-0.0846zm-5.3866-16.661-1.5097-0.63174-0.65697-1.728-0.65697-1.728v-2.0158l4.0336-4.0336 3.6331 0.90667 2.3333 2.1028v5.6301l-1.7938 1.4887-3.8729 0.64052zm-6.5951-17.045-1.7109-1.7109 0.83362-4.245 2.2369-1.6667h3.4485l2.9634 2.0756v5.1821l-1.4816 1.0378-1.4817 1.0378h-3.0973zm-6.8952-13.622-1.3333-1.3333v-4.46l2.4383-2.2066h3.9735l1.2608 0.92188 1.2608 0.92189v4.9947l-3.081 2.4949h-3.1856zm-8.1121-13.019-1.7788-0.96601-0.86458-3.9364 0.72643-1.3574 0.72644-1.3574 4.3026-1.168 2.6667 1.3375 0.4898 0.73353 0.48979 0.73353 0.0204 4.2366-3.5131 2.7634-1.4869-0.0534zm-9.6868-13.315-1.4289-1.0008-0.4305-1.9601-0.43051-1.9601 0.81085-1.5391 0.81086-1.5391 1.4671-0.97958 4.7934-0.0204 2.0276 2.3333 0.44331 1.8642 0.44332 1.8642-3.9383 3.9383h-3.1392zm-160.57-10.097-1.6348-1.764v-2.9439l1.6348-1.764 1.6349-1.764h3.916l1.4691 1.1896 1.4691 1.1896 0.0693 2.4462 0.0693 2.4462-1.2346 1.3642-1.2345 1.3642h-4.5237zm150.41-6.6592-1.3817-1.7566v-3.2141l3.4217-3.4217 4.2271 0.84542 1.8179 1.8179v4.9001l-1.17 1.2928-1.17 1.2928h-4.3632zm-145.93-9.1197-1.4495-1.543v-3.6684l1.3052-2.4388 4.078-1.4216 3.2024 1.2175 1.4144 2.6428v3.2412l-2.7634 3.5131h-4.3375zm138.79-5.3706-1.8372-1.5803v-4.7731l2.4734-2.733h4.5206l1.6364 1.6364 1.6364 1.6364v3.4965l-3.8974 3.8974h-2.6949zm-134.45-10.442-1.7896-1.4077v-5.0299l2.4384-2.2066h3.9317l1.4817 1.0378 1.4817 1.0378v5.7611l-0.83333 0.67132-0.83333 0.67131-4.0875 0.87257zm131.03-5.7571-0.84736-0.34094-1.0131-1.9591-1.0131-1.9591 1.733-3.6159 3.5461-1.6996 1.6474 0.75058 1.6474 0.75059 1.4804 3.249v1.7574l-2.7634 3.5131-3.5699-0.1052zm-126.33-7.7205-1.0974-0.83334-0.68119-1.836-0.68119-1.836 1.4494-3.181 3.181-1.4494 3.6448 1.3858 0.50336 0.79162 0.50336 0.79163 0.0102 2.4622 0.0102 2.4622-1.4817 1.0378-1.4817 1.0378h-2.7818zm122.48-10.136-1.6364-1.6364v-4.6305l1.7566-1.3817 1.7566-1.3817h1.8864l3.9338 2.0342v5.7333l-3.0859 2.8991h-2.9747zm-117.02-4.979-1.9487-1.9487v-2.0282l3.1111-3.6169 4.5451 0.1292 2.3437 2.8944v3.2462l-3.2727 3.2728h-2.8298zm116.52-11.551-1.1184-0.83333-0.83362-4.245 1.7854-1.7854 1.7854-1.7854 4.245 0.83362 1.6667 2.2369v4.2052l-1.2192 1.1033-1.2192 1.1033h-3.9735zm-108.81-2.0893-1.2617-0.92261 0.0724-2.5544 0.0724-2.5545 1.537-1.2446 1.537-1.2446 3.9062 0.78124 1.7679 2.3287 0.0424 4.1267-2.4383 2.2066h-3.9735zm9.3284-11.708-1.3452-0.54566-1.9243-3.5957 1.9965-3.5618 3.6893-1.7735 3.334 2.1845 1.0785 2.9154-0.60827 1.7449-0.60828 1.7449-1.6648 0.75856-1.6648 0.75855-0.46863-0.0422-0.46863-0.0423zm100.62-3.0335-1.0901-1.6637 0.43677-2.3282 0.43676-2.3282 2.5216-1.3495h3.1886l2.8991 3.0859v3.5807l-2.6667 2.6667h-4.6359zm-93.02-11.007-1.0792-0.63059-1.7051-4.1165 2.6627-3.5818 4.9983-0.42161 1.2679 1.1475 1.2679 1.1475v4.92l-1.2192 1.1033-1.2192 1.1033-3.895-0.0406zm96.079-3.3289-1.3333-1.3333v-5.2577l2.9633-2.0756h2.8568l3.5131 2.7634v4.3185l-1.3593 1.459-1.3593 1.459h-3.9481zm-88-10-1.3333-1.3333v-2.5576l0.82824-2.1584 3.7635-1.9462 3.2737 1.2447 0.99359 1.4185 0.99358 1.4185-0.70732 2.9137-2.0186 2.3333h-4.46zm92.41-6.3099-1.0767-1.6432v-4.0469l2.6667-2.6667h4.6667l2.6667 2.6667v4.0469l-1.0767 1.6432-1.0767 1.6432h-5.6933zm-80.866-5.6948-1.4564-0.5868-0.71025-1.3271-0.71024-1.3271v-2.5745l2.7634-3.5131h5.0299l2.2066 2.4383-0.0204 4.5617-0.97958 1.4671-2.9124 1.5329-1.7543-0.0846zm90.79-8.7652-1.3333-0.72927-1.6667-2.0891v-4.315l3.5132-2.7634h2.9737l3.5131 2.7634v3.7942l-0.41412 1.0792-0.41412 1.0792-3.7722 1.9507-1.0662-0.0406zm-78.586-4.6194-1.7471-1.3742v-5.0299l2.4383-2.2066h4.6884l1.1033 1.2192 1.1033 1.2192v4.6884l-2.3333 2.0276-3.5059 0.83079zm89.223-9.5805-1.6364-1.6364v-3.7639l2.0756-2.9633h5.0511l2.0489 2.3333 0.44654 1.4667 0.44653 1.4667-2.0194 3.9051-2.1584 0.82824h-2.6182zm-78-2.6667-1.6364-1.6364v-3.0973l1.9792-2.8256 3.8544-1.3436 3.1402 1.5656 1.7055 3.3071-0.39155 1.6667-0.39156 1.6667-1.0514 1.1667-1.0514 1.1667h-4.5206zm15.845-9.4014-1.4817-1.0378v-5.0511l2.6225-2.3733h3.3572l3.3537 2.1974v5.0959l-1.2192 1.1033-1.2192 1.1033h-3.9317zm74.406 0.0184-1.7788-0.966-0.45842-2.0872-0.45843-2.0872 1.3034-1.7534 1.3034-1.7534 4.7916-0.4093 2.7426 2.7426-0.0102 2.1667-0.0102 2.1667-0.97958 1.4671-2.9124 1.5329-1.7543-0.0534zm11.651-9.6599-1.4611-0.58234-2.2247-3.3953 0.42378-1.6885 0.42379-1.6885 1.3164-1.3164 1.3164-1.3164h3.3939l3.2727 3.2727v4.5206l-2.3333 2.0489-1.3333 0.36372-1.3333 0.36371zm-73.102-1.2066-1.1033-1.2192v-4.289l3.2727-3.2727h2.1483l2.9123 1.5329 0.97958 1.4671 0.0102 2.3967 0.0102 2.3967-2.4383 2.2066h-4.6884zm15.13-5.4435-1.433-0.57816-0.75365-2.2836-0.75364-2.2836 1.3095-3.4443 2.6428-1.4144h3.8552l2.8991 3.0859v4.308l-3.2727 3.2727-3.0606-0.0846zm68.293-2.0424-1.1399-0.66451-0.88266-4.705 3.0615-3.2588h3.5352l1.4496 1.543 1.4495 1.543v3.5807l-2.6667 2.6667-3.6667-0.0406zm-55.17-7.2511-0.69013-1.2895v-3.8328l1.6667-1.987 2.136-1.6007 4.2255 1.473 1.3052 2.4388-0.0212 1.8772-0.0212 1.8772-0.88562 1.1667-0.88564 1.1667h-6.1394zm67.066-0.75888-1.7566-1.3817v-4.2732l2.0756-2.9633h5.0511l1.0954 1.2104 1.0954 1.2104 0.8315 4.1575-3.4217 3.4217h-3.2141zm-50.423-3.9516-1.3333-1.3333v-3.9048l2.0932-2.0932 3.3562-0.84235 3.5506 2.6389 0.43022 3.621-1.0638 1.6236-1.0638 1.6236h-4.6359zm34.437-1.8858-1.1033-1.2192v-4.6884l2.4383-2.2066h3.265l1.4817 1.0378 1.4817 1.0378v5.0511l-1.2192 1.1033-1.2192 1.1033h-4.0217zm-16.603-0.16757-1.1667-0.67952v-5.903l3.2826-2.1509 2.359 0.77853 2.359 0.77854 0.47128 1.7815 0.47127 1.7815-0.39682 2-1.0432 1.1667-1.0432 1.1667-4.1267-0.0406zm-289.44 405.27 2.158-0.78034 0.4968-2.7726-0.24304-1.1757-0.24305-1.1757-3.8325-1.9819h-5.2197l-1.7929 1.4103-1.7929 1.4103 0.20295 1.4002 0.20296 1.4002 4.5305 3.0458h3.3748zm224.42-2.6349 4.8457-0.74857 3.7528-1.3669 3.2472-4.7788-3e-3 -3.3452-3e-3 -3.3452-2.994-6.3333-2.994-6.3333-3e-3 -2.256-3e-3 -2.256 1.5902-5.3075 12.589-12.487-0.36287-2.7054-0.36288-2.7054-2.2106-3.3738-2.9021-2.0456-2.9021-2.0456-7.1052-2.5705-7.7888-1.163-10.878 1.8176-8.6667 2.9043-12 5.0532-10.667 2.9216-4.1443 1.7742-0.42784 2.1392-0.42783 2.1392v3.7546l1.253 0.77439 11.897-2.5965 10.565-4.1748 3.6189 1.3759v3.2031l-1.6667 1.3249-12.52 4.3309-10.016 2.4431-1.3977 1.3977 1.6051 1.6051 16.995 1.1064 7.3333 1.6218 0.20662 1.7885 0.20663 1.7885-2.763 1.4787-7.6503-1.3536-15.067-0.1912-0.73367 0.73367 0.79825 1.2916 9.19 2.7914 11.373 5.2295 0.71706 1.3398 0.71705 1.3398-0.78506 2.0458-2.4447 0.77592-8.4321-3.5857-7.9195-3.1395h-3.8152l-1.932 4.6238v2.6788l3 1.9208 19.333 4.6701 9.3333 2.1316 10.667 2.545 4.3086 0.0966zm-61.242-1.9994 1.6415-0.74793 0.36552-1.3977 0.36551-1.3977-2.2455-6.3223 2.476-7.2842-0.80666-2.1021h-7.8752l-4.1667 0.83334v8.3476l-0.99589 1.9095-0.9959 1.9095-4e-3 1.3989-4e-3 1.3989 5.6667 2.4048 4 1.6384 0.93726 0.159zm-188.91-7.0995 3.6667-1.1611 0.82209-0.52812 0.82209-0.52811-0.41338-5.1343-0.41337-5.1343-0.71917-0.90822-0.71916-0.90822-7.186 0.84457-1.2818 0.68598-1.2818 0.68597 0.83578 6.3004-0.76253 2.8318-0.76252 2.8318 0.80503 1.3026 2.9213-0.02zm169.17-2.8119 2.1667-1.321v-2.4348l-1.3974-1.4999-1.3974-1.4999-3.2921-1.2516h-3.2795l-0.65017 1.7101-0.65016 1.7101v5.1354l1.6667 0.67252 4.6667 0.1002zm310.72-0.85434 0.89147-0.73985 1.8586-3.7066 1.8587-3.7066 0.9304-3h-1.766l-9.418 7.1754-4.2392 2.1922v1.1358l1.6667 1.3786 4 0.60839 3.3259-0.59761zm-457.17-1.8431 1.2895-0.69012v-7.2395l-2.8611-1.5312-6.7208 0.64578-2.4181 2.9862v3.689l1.6667 1.3764 4.6667 1.3333 3.0877 0.1202zm441.94-3.2429 3.3329-1.2664 11.037-7.4198 7.0413-6.895-0.20619-1.0762-0.2062-1.0762-7.9839-0.97105-4 0.65815-4.6667 4.1758-10.667 6.975-8.2362 4.1322-0.72746 1.1771 4.9637 2.0956 1 0.32594 1 0.32595 4.9857 0.1052zm-92.008-2.5321 3.0223-1.1319 6-3.2825 9.3333-6.9532 4.217-4.5005 2.7511-5.347 0.8034-5.1677 0.80341-5.1677-3.9454-5.6136-5.7418-4.0372-11.623-0.4561-0.69993 0.89472-0.69994 0.89471-0.76597 4.7951-0.76597 4.7951v5.4098h1.4423l5.695-4.6667h1.9294l1.6 1.6v2.789l-5.6667 5.348-8.9845 7.6954-0.96556 2.1171-0.96556 2.1171-3.2952 7.9922 0.31141 0.50388 0.31142 0.50388h2.8767zm75.371-5.3326 3.5022-1.1311 14.135-8.7616 0.44404-2.3057-3.7637-1.5036-8.3603-1.8188-12.306 4.653-8 1.9124-7.6456 0.84631-0.38136 0.61707-0.38137 0.61706 3.4283 3.1773 8.98 4.79 6.8469 0.0386zm-158.36-4.1867 3.9917-1.3851 9.3499-5.5178 9-9.1974v-1.2485h-1.0031l-13.33 3.3176-14.838 0.016-1.6078 3.8815-9.2862 9.662-0.70888 1.3246-0.70889 1.3246 15.15-0.7919zm-102.78-2.7292 2.5433-0.70623 2.6027-2.6027-2.1241-4.1076 0.45661-4.8726 0.4566-4.8727-2.724-1.4578h-6.7972l-4.6238 1.932v3.1047l1.9876 2.8378 1.3193 9.1256 0.0264 1.5739 3 0.57782 1.3333 0.1742zm-185.21-0.53682 2-0.42608 0.41355-3.995 0.41355-3.995 0.468-1.7375 0.468-1.7375-2.1917-2.1917h-9.7415l-1.5493 1.8668 0.77781 3.089 0.77781 3.089-0.69282 5.1653 0.7283 0.72829 0.72829 0.7283 5.4-0.1578zm168.07-1.0671 2.2681-0.94767v-5.2828l-4.1023-3.4518-3.5644-0.1536-2.6667 0.29095-0.48979 0.76463-0.48979 0.76462-0.0102 2.7338-0.0102 2.7339 1.5132 4.3406 5.284-0.84495zm-146.15-0.84904 0.34028-1.1667 0.78022-6-0.5188-0.68023-0.5188-0.68024-1.8647-0.81976-1.8647-0.81977-3.6039 4e-3 -4.2976 2.6203-0.4235 1.6874-0.42349 1.6873 0.77504 3.088 6.3695 2.1178 4.9102 0.1274zm415.02-5.8125 2.9392-1.0872 2.455-1.3139-4e-3 -0.80988-4e-3 -0.80987-4.3249-2.4963-5.1334-2.7078-14.2 0.31326-7.9378 0.2242-1.0603 5.0912 0.64691 1.2088 0.64691 1.2088 5.7043 2.9137 17.333-0.64776zm52.16-3.3036 1.0989-0.47451 1.3488-5.576 0.43427-2.7287 0.43426-2.7287-17.748-0.84125-12.667-3.4248-9.3333-4.1885-8.6667-5.6589-6.9469-5.9577-6.753-7.7171-2.4607-3.7072-2.4607-3.7072-2.1766-5.0343-2.1765-5.0343-3.1939-12.605-0.45719-5.3333-0.4572-5.3333 0.71776-7.4707 0.71775-7.4707 0.78996-2.0586-1.8093 0.0338-7.9759 6.6328h-1.1065l0.57446 24.333 0.78424 3.9672 0.78423 3.9672 2.0784 6.7323 1.6762 4.5542 1.6762 4.5542 2.0072 3.7792 2.0072 3.7792 6.6296 9.6215 7.7784 8.4887 10.42 7.9061 8 4.2031 8.6667 2.9749 10.667 2.413 16-0.41558zm-199.03-6.493 0.4795-0.77586-1.9402-1.6056-1.9402-1.6056-6.4348-6.2371 0.47631 2 0.4763 2 0.57445 1.1228 0.57444 1.1228v3.8654l0.44445 0.44444 0.44444 0.44445h6.3658zm12.766-1.6443 1.5-0.40199v-1.9227l-4.2373-5.2727-4.9753-1.4906-1.7271 0.43347-1.7271 0.43346v1.6783l2.9019 2.4847 5.8669 4.4783 0.89787-0.018zm-273.63-6.7891 2.5356-4.8026-0.41458-0.67079-0.41457-0.6708-4.7383-1.9798h-2.7103l-5.1269 5.3895v3.0448l3 2.8105 4 2.0799 0.66667-0.199 0.66666-0.19899zm396.08 4.138 1.0545-0.40466v-1.4029l-5.2058-6.7878-4.0524-4.3333h-17.408l7.8457 7.8457 0.78182 2.3689 0.78182 2.3689 1.1287 0.29756 1.1287 0.29757 12.891 0.1546zm-415.73-1.7893 0.71423-0.8606 1.4376-6.4149 0.93796-1.8138 0.93797-1.8138 1.044-0.86641 1.044-0.86641v-2.5784l-6.1821-2.7346-7.7752-0.70503-1.755 1.1499-1.755 1.1499 0.88672 4.2148 0.71688 5.6926-2.1363 3.2604v2.0066l6.3333 1.9475 4.8367 0.0928zm152.12-1.8061 2.6667-2.6667 0.158-3-0.22648-2-3.3392-3-3.5923 4e-3 -5.8496 5.0443 2.5896 4.1427 2.5896 4.1427h2.3371zm153.95-1.465 0.7431-2.1316-1.9012-1.9012-5.7764 1.8311-0.18955 1.0019-0.18954 1.0018 1.8505 1.1471 1.8505 1.1471 2.8696 0.0354zm-138.86-1.6135 2.5814-1.0784 5.6568-4.062 0.99614-1.5203 0.99615-1.5203-5.2871-3.7405-1.0143-2.1008-1.0143-2.1008v-3.6935l-1.1033-1.2192-1.1033-1.2192h-1.6736l-7.1197 5.6025-1.6667 1.6356v1.2946l4.6667 6.9346v6.9771l0.88888 0.88889h1.615zm-187.96-1.7044 1.543-1.4495v-2.4132l-3.7881-4.2396-11.928-0.86034-1.6176-0.99975v-3.0406l1.698-0.77368 1.698-0.77367h13.318l1.6432-1.0767 1.6432-1.0767v-3.0081l-12.043-7.7781-0.38369-1.5287-0.38369-1.5287 0.76862-2.003h3.8786l1.675 2.0183 11.007 6.6484h1.4815v-3.1386l-6-12.84v-5.8151l2.6667-2.4133 2.4984 2.261 0.348 2.5945 0.34799 2.5945 1.703 3.7199 1.703 3.7199 2.0832 0.7994 2.1388-1.775 3.4399-7.3741 3.1989-4.9254-1.7945-2.5549-12.667-13.853-16.486-16.918-6.8475-3.3714-8.1925-2.0438h-8.7058l-6.7559 1.5595-7.2973 6.5039-0.8919 4.7542 1.1575 5.5156 1.1575 5.5156 0.0484 7.8178-2.2022 5.1999-8.3956 9.4668-3.0574 5.0428-2.5213 8.2906-0.01 5.0428 2.0636 4.939 2.9364 3.148 4.9339 2.5303 5.7328 1.9234 15.333 3.8735 11.333 2.3354 13.333 3.0575 1.9141 0.1502zm505.01-1.3838 1.0535-0.83333 1.7872-6.8976 1.7872-6.8977-0.77238-2.0128-3.6468 0.91528-1.4949 1.2406-0.41177 3.0042-0.41178 3.0042-1.9758 3.8208-3.4311 0.86115-4.737-2.2478-0.90217-2.0619-0.90216-2.0619-0.7982-4.9838-2.5216-1.3495-2.421 0.01-1.607 2.3596-1.607 2.3596-1.9985 1.6816-1.9985 1.6816-3.4556-0.85706-1.4633-1.3656-1.4633-1.3656-1.3072-3.75 1.2934-2.5369 1.2934-2.5369-0.56558-1.4739-6.3003-4.1731-3.9228 3.3008h-5.7792l-3.5914-4.2682 0.68608-5.1151 1.8258-2.3937 1.8258-2.3937-0.1094-3.8498-1.5567-2.8231-1.5567-2.8231-5.3085-0.7397-2.9694-1.6242-1.3639-2.5484v-4.7024l2.9243-2.7244 5.7475-2.7823 0.28688-1.4393 0.28688-1.4393 0.72016-4.3283-6.4659-3.2765-0.83305-2.1709v-4.4949l1.4806-3.2496 3.1117-1.6654 5.0743 0.72082 1.0584 0.42881 1.0584 0.42882 4.2165-4.3127v-1.7147l-1.3309-2.1837-1.3308-2.1828-2e-3 -2.7059-3e-3 -2.7059 1.6667-2.2294 2.6667-0.23668 2.9962 0.21126 5.328 4.8135 1.7968-0.45096 1.7968-0.45095 1.7235-2.2449-0.77032-7.3333 1.4463-1.8333 1.4463-1.8333h3.6066l2.7172 1.9032 2.4486 5.4301h3.0681l3.3961-1.5474v-7.8329l2.1533-3.2864h5.0832l2.7634 3.5131v7.1954l2.244 0.8611 5.2524 0.097 1.6934-6.5796 1.1992-0.87689 1.1992-0.87684h5.1391l3.428 3.428-0.44603 2.786-0.44604 2.786-0.3854 2.8079-0.3854 2.8079 1.7113 0.77971 1.7113 0.77972 1.7952-0.68888 8.9968-12.958 0.14651-1.4178 0.14652-1.4178-8-4.3161-11.048-4.0353-9.6182-2.0066-16.246-0.00109-9.1079 1.9159-9.9792 3.5828-6.6667 3.3407-9.6337 6.6378-9.2487 9.7365-4.9956 7.7864-4.4342 9.3333-2.777 10.667-0.3793 6.3841-0.37931 6.3841 2.2766 12.565 1.9911 6 1.7572 4 1.7572 4 2.9046 4.4669 2.9046 4.4669 10.74 10.103 11.224 6.6297h1.1819l6.4439 2.7726 11.333 2.4274 13.412 0.1334zm-287.76-1.1981 5.2922-1.3648 6-2.0963 8-4.0346 8.1576-5.7482 6.3027-7.0101 4.334-8.7146 1.5101-9.415-1.2181-7.4844-2.1005-4.062-2.9858-2.8662-6.6667-3.1456-7.0802-1.4715-4.665-4.0959-2.5881-5.0731v-12.705l-2.5184-6.628-1.8149-1.7197-4.9915-3.7281-5.6751-2.576-5.4292-0.0292-5.9042 2.0288-14.412 10.763-5.9566 7.5418-7.796 15.333-1.5718 4.8974 4.6379 6.076 0.32053 1.18 0.32053 1.18 0.408 1.8333 0.40799 1.8333h3.2127l2.3272-2.3272 3.6232-8.0061 1.6682-10.667 0.65324-0.83333 0.65325-0.83333h1.8025l2.1827 4.2208-0.37701 3.0563-0.37701 3.0563-1.3955 6.555-5.3322 9.7155v3.4838l1.3802 2.579 2.2864-0.0266 10-7.3944 8.6667-6.3844 3-1.5748 2.6667 1.4272v2.8262l-5.071 4.7936-13.244 9.1628-0.69009 0.26482-0.6901 0.26481-1.5615 2.5004 1.9471 3.0702 1.9471 3.0702h2.9291l10.018-3.4577 12.749-1.2236 3.7521 0.806 1.444 3.1692-0.76809 0.9255-0.76809 0.92549-14.327 0.74502-9.0681 3.2449-1.3491 1.3491 3.4172 5.0355v9.1472h5.0822zm94.292-2.9192 7.6667-1.0049 9.3328-2.0445h0.87006l0.73188-2.0995 0.73189-2.0995v-15.738l-1.5139-3.3227-0.99919-0.38342-0.9992-0.38343-4.4586 0.83643 0.40743 4.82 0.40744 4.82-3.0954 2.8838h-4.3525l-1.5879-0.72347-1.5878-0.72348-2.2204-3.7588v-6.0807l-1.3677-0.73198-1.3677-0.73199-2.9312 0.41706 0.10997 1.6667 0.10997 1.6667 0.47039 2.778 0.47039 2.778-1.7831 4.0283-3.107 1.4157h-5.3312l-1.6364-1.6364-1.6364-1.6364v-10.649l-1.3676-0.84523-7.0918-0.73194-0.79596 9.4942-1.1954 2.0236-1.1954 2.0236-4.0205 1.0716-4-1.1096-0.75036-1.0164-0.75035-1.0164-0.41269-2.5808-0.41269-2.5808 0.66485-3.5058 0.66486-3.5058 0.72225-0.87026 0.72225-0.87025-0.86014-1.3917h-1.8959l-0.5687 3-1.4729 7.172-3.3609 6.6914-1.99 2.5126-1.99 2.5126 4.3572 1.3323 4.8108 0.80386 8.1729 3.203 6.0331 4.0717 4.3165 1.3351 14.667-0.58036zm86-3.291v-0.24165l-4.0452-9.85-1.7611-3.8333-1.7611-3.8333h-1.7659v17.267l7.6667 0.48109 1.6667 0.25212zm-345.64-3.4028 2.3111-2.3111v-3.9474l-4.9705-4.0971h-5.533l-1.6165 1.9477-0.69658 5.1934 1.5682 2.9302 4.2482 2.5903 2.3778 4e-3zm105.65 0.14445 1.321-2.1667-7e-3 -2.6667-7e-3 -2.6667-1.6801-3.3333-4.6336-1.1249-3.666 1.425-1.3312 2.1833-1.3312 2.1833-4e-3 2.3138 7.6667 6.0186 2.3529 8.4e-4zm265.67 1.4825 0.42283-0.68416-3.6605-5.786-2.7526-1.719-10.021-1.7671-6.3333-0.0262v2.7198l1.3049 2.5579 1.3049 2.5579 2.3901 1.0695 5.3333 1.5875 11.588 0.1742zm-389.38-7.4825 0.26047-0.83334 0.8646-5.1792 6.7466-7.1335-3.6136-4.7376-5.3042-3.3484-1.1894 0.37749-1.1893 0.37748-2.6993 2.9771-2.334 6.2669-3.8072 3.7331-0.037 2.9092 3.9032 2.7793 5.7635 2.6156 2.3752 0.0292zm138.57-5.8173 4.9524-3.984 2.2567-3.4442-0.20786-1.46-0.20787-1.46-5.3333-1.6993-2.2168-2.6389-0.93806-5.6629-0.61271-1.1667-0.6127-1.1667h-3.2369l-5.2872 5.5024-2.0478 3.8421-2.0478 3.8421v1.8435l4.773 2.5704 3.1915 3.7929 1.5799 5.2732h1.0432zm-103.69-1.3274 4.179-1.977 0.38588-1.0056 0.38587-1.0056-2.8464-4.6056-3.9499-0.86755-3.9838 0.87498-2.7871 3.5432 0.39513 1.9757 0.39514 1.9757 2.0113 3.0697 0.81796-5.3e-4 0.81797-5.2e-4zm70.32-0.69059 1.1656-2.3314 2e-3 -6.1535-1.3817-1.7566-1.3817-1.7566h-3.4125l-4.6437 2.87-1.847 4.4206v3.3717l8.3333 3.9055 1-0.11917 1-0.11916zm276.1-1.6647-0.065-2.6667-2.1021-4.9206-5.1012-0.82644-6-1.2268-6.6667-0.35947-0.4175 3.6211 1.1417 2.406 1.1417 2.406 3.2974 2.1605 10.17 2.2806 4.6667-0.20766zm91.865-0.95642 3.7996-1.4475 0.39399-1.2414 0.39399-1.2414-0.43254-1.7234-0.43253-1.7234h-0.95127l-6.2465 2.1284-12.324-0.46243-6.3075-3.1058-6.6765-6.0027-4.3272-8.8908-0.24289-9.2202-0.24288-9.2202 4.1967-8.5246 5.6003-4.5408 5.3333-2.6584 7.5385-2.169h8.269l7.9045 2.0483 4.9546 2.7518 4.194 3.1616 2.9636-7.3018-1.8243-2.2221-9.3333-4.3039-11.613-2.3964-12.387 1.7215-8.7424 3.6367-7.5139 5.6731-4.5446 5.5646-4.5761 8.6667-0.8115 3.1762-0.81151 3.1762v10.52l3.2082 9.4827 4.2536 6.6287 7.3908 6.7548 6.5109 3.2993 7.6364 1.9351 12-0.48177zm-413.99-3.8108 1.8136-0.91322 0.68643-1.2826 0.68643-1.2826v-3.2829l-4.7131-4.1381h-3.3746l-2.9123 1.4894-2.3037 2.8439-0.0296 6.2381 1.0307 1.0307 1.0307 1.0307 6.272-0.8201zm24.248-0.35193 1.0959-2.1192-0.783-6.6112-1.0974-1.2126-1.0974-1.2126-5.8489-0.87709-3.2648 2.1392-0.69603 2.5063-0.69602 2.5063-8e-3 2.7452 1.7538 2.3984 6.5796 1.7664 2.9658 0.09zm-60.669-5.1275 2.931-2.58 7.0092-1.9434 0.42568-2.8936-6.4232-12.182-4.3621-2.0801-1.7603 1.9261-1.1586 3.1582-1.1586 3.1582-3.7686 2.6835h-1.3981l-3.3961 1.5474v2.8603l3.3288 4.5924 5.0046 4.3135 1.7954 0.02zm260.87-0.77036 7.5958-0.67231 3.2894-0.8256-0.44507-3.4092-0.44508-3.4092-1.8984-1.9266-6.9508-1.7788-4.4689-3.4086-5.9097 5.4474h-7.7479l-4.6152-2.3978-2.8901-1.8543-5.6278 2.5378h-6.8751l-4.2155-3.0017-1.8624-3.4753-1.8624-3.4753-0.5 0.16667-0.5 0.16666-5.6667 0.0204-1.912 1.2099 3.357 5.103 1.23 3.2414 1.2299 3.2414 5.8771 2.5192 9.5513 3.2396 9.3333 2.292 10.667 0.94143 4.6667 0.1802zm-165.46-7.3228 3.4933-6.3268 0.0202-2.1667 0.0202-2.1667-4.3333-8e-3 -4.6693-1.2972-4.3831-6.6953h-1.8956l-2.886 3-3.0764 6.6667-1.5003 8.4368 1.574 1.8966h6.3034l5.5334 4.0084v1.4227l2.3064-0.44418zm259.45 4.736 0.92122-0.58345-0.45238-2.4114-0.45237-2.4114-2.9377-1.8681-6.4246-2.137-1.882 1.0532-3.3601 4.5543v1.1423l4.8707 2.0351 8.1293 1.0611 0.66667 0.1486zm-329.31-7.1035 2.58-1.7074 7.8114-0.76593 0.83333-0.65797 0.83334-0.65796v-5.2463l-1.536-6.2571-2.5568-3.6694-2.6243-1.4045-2.4455 0.77618-0.36407 2.7144-0.36408 2.7144-3.0084 3.2023h-9.7676v2.5386l4.7815 8.4614 0.69087 0.83333 0.69087 0.83334h1.8653zm39.813-1.4695 0.75487-0.48979 2.2321-6.6014 0.37812-4.0493 0.37813-4.0493-0.98971-0.82138-0.98971-0.82139-5.1377 2.1467-4.7144-0.64392-5.1649-4.8927-2.1684 0.41755-1.798 5.3151-0.10098 6.3333-0.10098 6.3333 12.667 0.7803 3.3333 1.4685 0.66667 0.0642zm-81.612-5.5449 2.4762-0.80839 1.4142-1.5054 1.4142-1.5054-1.3404-2.4591-12.75-6.5405-0.36049-1.1358-0.3605-1.1358 0.41977-1.0939 0.41978-1.0939h3.7218l11.986 6h1.4305l7.3438-2.2614 0.3425-0.89253 0.34249-0.89253-4.7081-10.193 0.39882-3.4275h3.8179l5.8815 10.667 1.1475 2.6667 2.7205 2.4502 2.4325-0.46429 0.40575-7.993 0.40576-7.993 0.99466-2.6667 0.99467-2.6667h3.8658l-0.1862 8-0.16675 4.5402-0.16676 4.5402 1.5171 1.5171 4.3359-4.1148 4.3906-2.2131 0.57883-1.5224 0.57882-1.5224-0.55741-6.9456-0.55741-6.9457-0.7706-4.6667-0.7706-4.6667-3.3429-9.3333-5.3273-14-1.6541-2.8589-1.6541-2.859-3.1236-1.9617-3.1236-1.9617-5.0443-0.0254-6.289 3.2192-4.3288 4.4474-7.0045 10.58-3.7813 2.7529-14.219-0.1642-6-2.1498-6.231-0.02-4.1502 3.4922-1.1268 2.0873-1.1268 2.0872-1.6782 5.3333-0.0202 4.9349 2.0019 7.6857 2.6632 5.3563 2.6632 5.3563 15.005 18.667 9.5726 9.8091 0.88038-0.36126 0.88037-0.36125zm370.52-2.6116v-4h-1.3973l-1.6172 1.8333-1.6172 1.8333-0.4059 1.1987-0.40589 1.1987 1.6068 1.936h3.8367zm-104.93 2.1565 0.74031-0.48979 2.186-4.2671v-2.7329h-5.3762l-4.6238 1.932v3.4014l2.6667 2.6667 3.6667-0.0204zm18.688-1.1637 0.38653-1.0073-0.81983-4.3449-0.81982-4.3449-2.2597-1.2093-3.2489 1.6138-0.44266 3.0932 1.6156 3.9004 3.9294 3.3063h1.2729zm-36.253-1.7721 1.1751-1.3892 0.41511-1.6539 0.4151-1.6539-1.8471-1.1698-6.9531-0.0204-1.4125 2.6393 0.42564 1.6959 0.42565 1.6959 2.8476 2.0151 3.3333-0.76974zm-121.89-13.221 3.2803-6.3333 7.1633-18.667 2.8867-8 0.0281-7.6667 0.0281-7.6667-1.5707-3-1.5707-3-4.8244-5.0291-5.2466-1.4128-4.7605 0.89307-12.74 6.6372-5.4736 0.73417-6.5677-2.1814-5.2456-5.41-8.6667-6.1005-5.3333-2.4346-4.2465-0.0292-3.7535 1.4151-2.2251 2.1258-2.2251 2.1258-1.1868 2.3333-1.1868 2.3333-2.2118 8.6667-0.7673 9.1956-0.76729 9.1956 1.5448 12.276 0.66651 4.8761 0.66652 4.8761 0.38559 0.62389 0.38558 0.62389h5.7585l5.005 2.0912 1.3763-1.3763-1.1681-6.2058-1.1681-6.2058 0.22559-1.985 0.22558-1.985 3.1538-0.44622 1.2662 1.2662 2.5572 9.8467 0.0114 3.2105 0.0114 3.2105 1.3802 2.579h9.8084l2.1447-9.4969 0.02-5.5031 1.6804-3.3333 2.75-0.39768 1.791 2.158-1.0836 8.3281-1.0836 8.3281 0.36777 0.95841 0.36778 0.9584h9.1042l3.7531-5.4186 2.8668-3.5656 2.8669-3.5656 2.0295-0.77881 1.285 0.68773 1.285 0.68774v3.035l-1.1726 1.2924-1.1726 1.2924-4.1472 5.3333-3.5553 7.05 0.39657 0.64168 0.39658 0.64167 5.588 0.133 3.3333 1.082 1-0.10744 1-0.10743zm103.96 3.8724 0.70693-1.1276-1.3045-1.4414-1.3045-1.4415-5.6848-3.3315-1.9835 0.76116v4.9559l2.9566 3.1472 5.9068-0.39455zm-16.374-4.7155 0.19614-4.4035-7.3787-2.3259-4.5942-3.7869-0.28746-1.4869-0.28747-1.4869 0.5409 7.3333 0.77028 3.1806 0.77027 3.1806 2.0741 1.8738 6.6667 2.6208 0.66667-0.14777 0.66667-0.14776zm52.492 2.7827 3.9329-0.72704 8.4816-3.3954 0.64281-1.6907 0.64281-1.6907-1.7215-1.6494-8.6667 2.0709-16.076 0.57937-8.591-2.2168-8.9717-4.7034-6.6673-6.5629-5.0277-10.287v-17.333l1.3031-3.3333 1.3031-3.3333 3.8379-6.6667 8.2225-8.4069 4.3333-2.7019v-2.2913l-1.6-1.6h-3.5204l-8.1791 4.0871-3.2227 3.2911-3.2227 3.2911-4.1945 8.428-3.0231 10.569 0.0286 6.6667 0.0286 6.6667 3.7758 11.333 4.0525 7.7672 6.8475 6.2328 9.7133 5.1362 4.1828 1.3131 13.333 1.7176 4.0885 0.1664zm-51.273-15.58 0.3735-0.97332-3.3818-7.3867h-2.5264l-0.77367 1.698-0.77368 1.698v3.1738l3.5131 2.7634h3.1954zm53.507-0.32971 2.4107-0.63635 1.8333-0.37635 1.8333-0.37634v-1.1602l-2.4917-3.0771-13.175 2.284-3.6166-0.0212-7.05-2.6858-6.4102-4.7162-2.6972-6.2646 0.2277-6 0.22771-6 3.6142-7.7453 7.5462-7.3675-3.0697-6.5539h-1.2537l-6.4736 5.42-5.9131 8.9133-2.7984 8.5535v6.9727l2.7029 8.751 4.3391 5.6889 5.5897 3.9286 9.035 3.0208 13.179 0.0844zm-66.636-7.5068 0.0469-3.8099-1.287-0.68876-1.287-0.68877-2.8965-4.0678 0.0884-7.4076 3.8838-6.8816-2.6258-6.6457 0.27845-3.4386 0.27844-3.4386 2.3055-3.5186 7.2566-5.6042 0.018-7.3333 1.9939-3.4766 1.9939-3.4766 2.3331-1.2046 5.1084-0.92291 1.1125-2.0253 1.1125-2.0253 1.1453-1.5123 1.1453-1.5123 7.3761-3.6088v-1.0054l-1.7333-4.2816-1.7333-4.2816-0.47315-0.49533-6.3936 3.7201-9.5977 7.0671-7.5993 7.7081-6.5886 8.6667-5.8157 12-0.9764 3-0.97641 3-2.2121 8.6667-0.34816 9-0.34817 9 7.3478 5.5709 5.448 8.0226v0.65303l1.4802 3.7535 1.0928-2.6667zm7.4078-11.884 0.44906-1.6938-0.6216-4.2353-2.6352-0.83638-3.2199 3.0249v4.368l2.3333 1.3907 3.2452-0.32446zm-52.063 0.0452 2.5781-1.3153 5.7906-2.0168 11.042-0.02 0.7506-1.956-1.2367-3.71-6.306-0.90204-3.5831-2.2653-1.1518-1.4166-1.1518-1.4167-0.0148-1.7899-0.0148-1.7899 1.2506-3.2894 4.9329-1.628 6.2226 0.73699 1.3378-0.90634 2.256-3.2967v-3.7319l-1.5-0.59158-1.5-0.59159-4.4973-1.6846-1.944-4.6525 0.40229-2.1444 0.40229-2.1444 3.3557-3.6209 6.281 0.64839 5.6487 1.7474 1.1756-1.302 1.1756-1.302 1.9555-3.7854-2.6222-1.4465-4.3333-4.3015v-7.7141l2.8991-3.0859h5.1671l3.8161 1.9734 2.4511 3.0894 1.7236 1.0512 6.5755-6.4472 0.0171-1.1123 0.0171-1.1123-4.6214-2.8562-0.43016-2.293-0.43015-2.293 0.41582-2.2166 0.41583-2.2166 1.825-1.6857 1.825-1.6857 2.4761-0.87507 4.9568 1.3347 1.7498 1.8391 1.7498 1.8391 3.1506 3.8434 4.8705-1.7612 0.31449-0.81956 0.31449-0.81955-2.4532-11.11-0.70271-4.3333-0.70271-4.3333-0.9053-10.304-6.987 3.8345-6.5675 4.5176-7.7858 5.9514-12.636 11.997-7.6659 9.5292-7.7249 11.73-7.6349 15.411-4.1217 11.691-3.2605 12.309-0.78348 5-0.78349 5-0.34109 7.1667-0.3411 7.1667h0.86728zm53.127-15.195 0.75776-0.48979 1.9055-7.5092-0.53739-1.4527-0.53738-1.4527-4.8804 0.41459-1.3162 1.7706-1.3162 1.7706v3.7171l4.1877 3.7417 0.97897-0.0204zm288.91-3.4746v-1.3181l-3.3782-8.975-2.2723-2.5109-5.2666-2.5446h-3.7496v0.72388l5.3333 7.0639v2.1494l0.72354 1.588 0.72354 1.588 6.8862 3.4723 1 0.0812zm8.3946-1.0152 1.092-1.6667-2.1178-3.2322-2.8027-0.88953-0.50365 0.50364 1.0189 3.4757 1.0189 3.4757h1.2023zm-24.395-6.2688v-0.52345l-5.5965-5.5411-2.0702 0.0292-5.6667 2.5722v1.3087l3 0.80319 4.6667 1.1917 4.6667 1.2134 1-0.53048zm33.808-4.87 2.8586-2.8055v-3.0572l-2.7078-2.6278-2.7078-2.6278-4.7511-1.568-5.6947 0.78055-7.472 3.3045v1.3159l3.6667 2.5729 10.217 5.5747 1.6127 1.9432h2.1196zm-368.47-3.0868v-2.3041l-1.4227-3.9018-1.4227-3.9018h-1.8865l-2.5722 5.6667-0.0292 2.5342 2.8333 3.1162 2.8333 3.1162 0.83333-1.0107 0.83334-1.0107zm226.05-3.441 6.5712-5-0.14319-1.3027-0.1432-1.3027-10.323-8.9157-11.01-5.3488-13.333-2.3319-13.333 8e-3 -12 2.227-8 2.11-8.1565 3.9112-5.5102 4.7165v2.6842l4.5142 5.2739 3.1524 5.9861 2.8495 0.72538 7.8172-4.0407 16.148-2.7327h11.238l7.9468 2.0434 12.667 6.4948 2.4773-0.20486zm-153.93 0.32996 1.8411-2.6633 0.0221-0.9475 0.0222-0.94751-1.1033-1.2192-1.1033-1.2192h-2.7074l-3.0859 2.8991v4.6626l2.2513 2.4877 2.0222-0.38943zm-85.045-6.1633 0.46331-2.5 5.8469-14.667 2.7706-6 5.3584-9.3333 4.7011-7.3333 3.3676-4.6667 3.3676-4.6667 10.233-12 13.155-12.709 10.93-8.6239 5.737-4.1703 10.79-6.707 9.877-4.9457 0.48373-0.43854 1.8347-7.0149 1.8347-7.0149-0.61684-0.61685-1.1015 0.38565-1.1015 0.38564-6 2.6282-14.667 8.0601-10 6.8967-13.333 9.0826-9.3333 7.4588-8.0454 8.0104-5.0885 7.761-9.0562 17.887-6.3208 15.018-4.5659 13.085-3.9599 13.329-0.40564 2.9595-0.40565 2.9595h2.7875zm395.35-0.94973 4.2519-3.4497v-1.2432l-2.1336 0.81876-9.2157 1.5219-2.3173 1.7029 3.9161 4.099h1.2468zm-296.84-1.932 1.7566-1.3817v-3.1398l-3.5131-2.7634h-2.1902l-2.9634 2.0756v3.6277l1.0378 1.4817 1.0378 1.4817h3.0779zm-79.595-3.2996 1.2274-2.3187 2.6165-6 0.9045-2.9182-3.4447-6.7978-1.1758 0.72668-5.5917 10.323-9e-3 1.3494-9e-3 1.3494 3.0187 7.0172 1.236-0.41198zm-295.32-1.6486v-0.99665l-3.1667-3.9327-3.1667-3.9327-5.4948-9.808-8.5522-15.333-8.4885-18.667-2.137-4.6667-2.137-4.6667-2.0278-5.6667-2.0278-5.6667-3.0586-9.6667-3.0586-9.6667-1.036-4.6667-1.036-4.6667-1.2268-6-4.7814-19.333-1.3022-8.5794-1.3022-8.5794v-14.606l-2.1953 0.4311-1.6869 6-2.8537 18.667-1.2641 6.399v18.548l0.99679 6.86 0.99679 6.86 1.4727 10.667 1.9398 8 3.8751 12 4.162 13.333 3.4058 8.6667 4.7047 9.3333 4.2133 6.3029 9.3487 9.6971 9.4573 8.9258 7.9411 5.4205 8.486 3.9259 1 0.0612zm539.01-3.4246 6.814-4.4212 0.37087-3.7455 0.37088-3.7454-1.0965-8.6667-0.76435-4.2472-0.76434-4.2472-1.3847-2.7142-1.3847-2.7142-4.9405-4.7439-7.2542-3.6667h-4.2274l-3.3171 1.2612-8.5111 7.2202-3.1639 1.6933-4.1556-2.2379-1.5215-5.6034-0.86524-5.2873-1.8578-3.5925-7.6946-4.8199-5.3333-1.4514-8.9468 0.82215-3.7198 1.5886-5.5236 4.3791-4.9168 9.6946-2.0996 2.3333h-4.0581l-9.203-9.3686-4.1989-2.2799-10 0.0376-7.4934 3.4578-5.7203 5.1531-2.3428 5.3333-0.92948 6.3415 0.90374 7.2332 9.3769 16.425 2.7711 3h0.80347l7.2974-5.3082 3.0808-2.1484-2.0774-2.8768-2.5849-4.78-0.16237-2.2767-0.16238-2.2767 0.11979-2.2451 0.1198-2.2451 5.1765-5.1765h6.3087l4.8711 2.7377 3.1021 4.5272 1.1765 5.0684 0.0159 2.2396 0.0159 2.2396 4.3333-0.71358 10.333-1.6978v-0.90498l-1-2.3933-1-2.3933 0.0146-1.8548 0.0146-1.8547 2.5354-5.5844 2.8177-2.0411 2.8178-2.0412h7.8662l3.6004 1.881 3.564 3.7857 2.2706 5.7243-0.47395 2.8045-0.47394 2.8045-0.21994 3.1838 10 2.4269 0.178 0.056 0.4607-4.3019 0.4607-4.3019 1.9009-2.6241 1.9009-2.6241 6.0791-2.3216 5.6865 0.90137 5.1012 3.5237 2.7868 5.4152 0.056 4.0461 0.056 4.0461-1.6048 3.1206-1.6048 3.1206h-0.97036l-2.1997 3.3572 4.9954 5.9761h2.5847zm20.799-12.323 2.5203-1.4106 1.072-1.5121-0.7874-14-1.0377-5-1.0377-5-5.1847-10.667-6.7271-6.8334-7.6307-4.0316-7.7356-1.5771-9.5977 1.563-5.7133 1.8792h-3.9091l-11.044-11-7.3333-3.5789-5.3333-1.4137-10.667 2e-3 -8.2906 2.5213-5.0428 3.0724-9.1078 7.6119-3.2845 0.82437-7.6076-6.5378-7.3333-2.6618-6.1643-0.89699-8.2488 1.3284-7.1176 3.2585-1.4014 1.4014-1.4014 1.4021v14.042l0.92909 0.35652 0.92909 0.35653 8.6858-5.9465 7.7894-3.024 13.598-0.5997 6.0199 2.0512 5.9555 4.0975h1.3941l4.3657-4.8667 1.3333-1.2897 1.3333-1.2897 2.9414-1.7369 2.9414-1.7369 10.784-2.3461 6.6667-0.057 8.3491 2.539 6.3176 3.6246 4.4502 4.1595 2.4524 4.7559 1.7721 1.4707 7.3254-3.5455 10.667-0.014 10.222 4.9967 7.1677 6.5508 3.5229 6.4728 2.008 9.313 2.0792 10.8v3.5336h0.62612zm-254.17-2.9937 1.071-1.071 5.4424-8.0143-0.33708-2.9906-0.33708-2.9906-0.9732-0.97319-0.97319-0.9732-2.1217 1.7853-2.1217 1.7853-4.1202 5.9885 0.40515 2.9559 0.40514 2.9559 0.6992 1.3064 0.69919 1.3064h1.1912zm17.118-21.695 3.2396-3.4326v-4.4054l-1.5474-3.3961h-2.182l-4.7161 5-2.8878 3.8465 4e-3 1.4869 1.321 2.1667 1.321 2.1667h2.207zm14.582-12.99 3.6578-2.4223 3.5039-3.2489-0.59068-2.7866-0.59069-2.7866-0.68128-3h-2.1642l-7.4771 6.2023-1.5272 1.7322-1.5272 1.7322 0.624 3.3333 0.69868 1.8333 0.69867 1.8333h1.7175zm-156.95-2.0504 4.2761-1.1394v-1.5583l-1.0644-2.5474-1.0644-2.5474-2.273-3.5533-2.273-3.5533-5.6585-6.1429-9.3333-6.2502-9.014-3.5682h-3.1051l2.953 11.667 2.4994 11.237 1.8401 2.9153 1.8401 2.9153 6.9865 3.2527 9.1145 0.014zm175.9-10.227 3.6024-2.033 0.63666-0.80028 0.63667-0.80028 0.9155-10.872-1.2168-0.75206-11.197 7.6428 0.0127 3.7366 0.0127 3.7366 1.8045 2.1743h1.1903zm-30.954-25.024 4.998-3.724 10.667-7.0228 14.229-8.0416 15.514-7.4876h1.2563v-1.3121l3.9954-8.248-0.51876-0.51877-7.81 2.2238-12.96 4.463-9.7065 4.516-14 14.557-10.016 11.986-1.8138 2.3333h1.1672zm-307.34-21.447v-1.1711l-0.65854-2.2962-0.65853-2.2962-2.3496-12.732v-52.667l3.0616-20 2.6485-13.333 1.0566-4.6667 1.0566-4.6667 2.0218-7 2.0218-7 8.9938-24.667 1.3845-3.3333 5.5904-15.333 1.846-3.6667 1.846-3.6667 0.38194-1.1667 0.38195-1.1667-1.6248 0.0212-9.3333 14.665-7.4394 11.648-5.727 10.667-1.1757 1.6667-1.1757 1.6667-11.316 24-4.0325 12.667-0.7104 3.4241-0.71039 3.4241-2.0435 13.818-0.99373 10.333-0.99374 10.333-8e-3 7.2932-8e-3 7.2932 1.5254 8.0803 3.8901 13.979 5.2511 11.206v1.0996l3.4404 7.3579 3.4407 7.3579h1.1191zm185.52-9.4413 1.6106-0.61234 3.034-7.4753-2.2227-5.82-4.0744-6.1512-8.2046-7.441-11.103-5.385-0.68329 0.6833-0.6833 0.6833-2.6764 7.7973-0.34355 5.1219-0.34356 5.1219 2.4919 6.9297 5.7732 5.0818 5.5677 1.9729 10.247 0.1052zm178.09-15.405 0.95927-0.98259 4.0158-5.6425 4.0158-5.6425-0.54962-0.54962-11.054 6.9766-15 10.724v0.99119l16.654-4.8923zm194.93-39.034 1.5464-5.2822 0.75152-10.147-0.84499-3.5933-0.845-3.5933-1.7259-3.3333-3.7659-4-5.0412-2.3333h-2.6746l-5.2527 2.6797-1.0137 1.9604-1.0137 1.9604v1.9206l1.2097 2.7019 1.2097 2.7019 14.581 24.069 1.3333-0.42954zm-340.55-5.7822-8e-3 -3.5-1.8582-6.9799-4.7964-8.5767-6.157-5.4196-8.0522-4.0237h-2.8951l-1.5355 3-0.68573 3.1874-0.68572 3.1875 0.42924 1.8125 0.42925 1.8126 2.3914 5.3333 5.0984 4.7621 4 2.5512 12 6.3113 1.1667 0.021 1.1667 0.0211zm-154.36-22.523 2.1578-6.3107 3.1015-7.3333 10.95-21.333 8.1858-13.333 19.645-24.457 8.47-11.543 14.97-18.667 7.2855-10 4.8295-9.3333 2.7077-8.1116 2.7078-8.1116 1.5263-9.7768-0.68426-14-1.7718-6.3333-1.7718-6.3333-3.3832-8.9929-2.5085-3.0071-0.052 5.3333 0.76499 6.6667 0.76499 6.6667-1.0349 8.017-1.0349 8.017-4.9247 14.565-11.134 19.84-7.7272 10.105-11.969 12.615-12.53 17.508-12.236 18.667-1.7064 3.6667-1.7064 3.6667-10.209 23.566-3.1458 13.101-1.4631 10-0.44895 5.9218-0.44894 5.9218 1.6671-0.55571zm206.02-30.977-0.0229-6.6667-1.5483-4.5506-1.5483-4.5506-6.5874-9.8489-5.5103-4.7166h-1.7219l-2.8524 5.8333-2.8524 5.8333 0.0191 5.6667 0.0191 5.6667 2.2225 4.6667 2.4061 3.9601 3.1538 2.7066 5.5128 2.9912 9.3333-0.32451zm264.45-14.048 5.5736-1.0484 7.3333-2.4109 7.3333-3.3812 1.5108-1.6101 1.5108-1.6101-9.6883-4.7085-9.5298-2.9916-11.137 0.47648-6 3.1336-4.4732 4.8525-3.0028 6.0131-0.42911 1.7844-0.42912 1.7844 2.3342 0.60992 13.519 0.1546zm-206.32-15.785 1.2086-3.5-0.0674-16-2.8523-8.9561-1.0456-2.0219-1.0456-2.022h-1.2258l-6.1777 7.5838-3.3441 6.5993-0.69824 6.8169 1.5634 5.785 5.7683 5.7683 5.1484 3.3683 1.5595 0.0784zm137.23-1.4005 3.3333-1.5541 7.5838-6.9368 2.7668-4.3809 2.7668-4.3809 3.2159-8.5438v-2.6362h-1.973l-5.027 1.8207-9.3333 3.0344-9.0597 4.6748-5.2579 5.9733-0.67085 2.4151-0.67084 2.4151-4e-3 1.4774-4e-3 1.4774 1.1089 2.3254 1.1089 2.3254 4.1155 2.0307 2.6667 0.018zm-71.267-10.99 2.6-1.8907 4.8246-5.3615 2.3228-3.9632 2.3228-3.9632 2.7529-8.5972 0.84158-5.0227-0.82248-1.3308-11.576 6.2618-8.0752 5.0482-2.0208 2.5217-2.0208 2.5217-0.84806 1.5929-0.84807 1.5929-0.54971 1.9168-0.54972 1.9168 1.0193 2.9916 1.0193 2.9916 3.387 2.6642h3.6201z"/>
</svg>
