<?xml version="1.0" encoding="UTF-8" standalone="no"?>
<!-- Created with Inkscape (http://www.inkscape.org/) -->

<svg
   version="1.1"
   id="svg1"
   width="1066.6667"
   height="1068"
   viewBox="0 0 1066.6667 1068"
   xmlns="http://www.w3.org/2000/svg"
   xmlns:svg="http://www.w3.org/2000/svg">
  <defs
     id="defs1" />
  <g
     id="g1">
    <path
       style="fill:#000000;stroke-width:1.05398"
       d="m -24.928238,1097.4977 -0.670991,-1.7491 0.347653,-557.72963 0.347645,-557.729671 564.413721,-0.01363 564.41381,-0.01364 0.013,559.127481 0.014,559.12729 -564.10419,0.3649 -564.104177,0.3649 z M 1096.1669,539.38968 l -0.014,-551.439465 -556.64322,0.01345 -556.643308,0.01345 0.01361,551.439475 0.01361,551.43941 556.643308,-0.013 556.6433,-0.013 z m -599.01919,329.03981 -37.4396,-15.42965 -14.83454,-6.01601 -14.83456,-6.01599 -43.79725,-17.7641 -43.79724,-17.7642 -18.3666,-7.48037 -18.36658,-7.48046 -36.41666,-14.75694 -36.41667,-14.75694 -3.8485,0.0441 -3.84853,0.0441 -2.32394,1.74955 -2.32392,1.74957 1.97084,2.66668 1.97085,2.66656 1.5e-4,6.13052 1.6e-4,6.13052 -4.00587,3.96353 -4.00588,3.96367 -7.64958,2.25447 -7.64956,2.25459 -9.88958,1.53431 -9.88956,1.53441 -19.77922,-0.77877 -19.77924,-0.77877 -8.47685,-2.31008 -8.47687,-2.30996 -5.24688,-2.90206 -5.2469,-2.90217 -2.2623,-4.71654 -2.26232,-4.71664 1.60758,-4.81967 1.60755,-4.81969 1.33721,-0.81775 1.33723,-0.81775 -10.27049,-6.64398 -10.27045,-6.64397 -7.313664,-7.93374 -7.313646,-7.93372 -3.741639,-7.56607 -3.741633,-7.56606 -1.576251,-9.10311 -1.576264,-9.10321 1.597487,-8.50008 1.597477,-8.50008 4.67541,-9.40341 4.675427,-9.40341 14.452479,-14.11312 14.452477,-14.113 2.14744,-5.08544 2.14745,-5.08536 -10e-5,-3.60888 -9e-5,-3.60889 -2.0113,-3.84797 -2.0113,-3.84797 -3.59288,-2.66937 -3.59288,-2.66936 -1.62172,-3.87347 -1.62172,-3.87334 0.90788,-4.78873 0.90787,-4.78875 5.72462,-5.11731 5.72462,-5.11721 6.01805,-2.55247 6.01805,-2.55245 8.34955,-1.8717 8.34956,-1.8717 24.3708,-0.0219 24.37081,-0.0219 -5.8e-4,-23.49039 -5.7e-4,-23.49036 7.48121,-3.27368 7.4812,-3.27368 62.09857,-23.10347 62.09853,-23.10345 8.24207,-3.1409 8.24207,-3.14088 -0.69354,-2.90621 -0.69353,-2.90619 -2.40011,-11.1825 -2.40008,-11.18246 0.0282,-16.77383 0.0282,-16.77382 2.82603,-10.48373 2.82603,-10.48371 5.22368,-12.27358 5.22368,-12.27357 15.98762,-23.76683 15.98764,-23.76685 2.87834,-8.69036 2.87833,-8.69038 1.4246,-9.00544 1.42462,-9.00546 -0.88354,-12.3113 -0.88357,-12.31127 2.834,-7e-5 2.83399,-6e-5 6.40143,4.83577 6.40143,4.83577 6.55512,7.39481 6.5551,7.39484 3.49429,6.91401 3.49432,6.91399 -0.0167,9.85975 -0.0167,9.85972 -4.24073,17.47283 -4.24072,17.47285 -0.88994,10.75659 -0.88991,10.75659 1.78775,4.26994 1.78773,4.26994 3.08346,-9e-5 3.08346,-7e-5 4.44308,-4.54302 4.44304,-4.54301 2.96738,-6.64743 2.96737,-6.64744 2.04938,-10.59894 2.04937,-10.59893 -0.0255,-10.01122 -0.0255,-10.01122 -2.06886,-13.27922 -2.06901,-13.27924 -0.0256,-14.2788 -0.0256,-14.27877 2.28753,-6.66684 2.28752,-6.66684 4.54859,-7.03555 4.54861,-7.0356 24.96846,-26.30837 24.96845,-26.30837 6.20621,-8.61317 6.20621,-8.61322 5.01844,-9.90329 5.01844,-9.90328 3.1483,-11.0642 3.14831,-11.06417 0.089,-13.97818 0.089,-13.978204 -2.68915,-7.168193 -2.68914,-7.168198 0.87919,-2.267035 0.87922,-2.267035 2.03199,-4.8e-5 2.03198,-5e-5 5.58918,6.6395 5.5892,6.639501 7.26531,10.736866 7.26531,10.736876 9.12177,16.5202 9.12166,16.52021 5.79552,14.35853 5.79541,14.35853 3.2998,12.89871 3.29972,12.89872 1.55241,12.58032 1.5523,12.58033 -0.0451,16.07491 -0.0451,16.07492 -2.09127,11.18261 -2.09128,11.18259 -2.25562,14.61864 -2.25574,14.61862 1.62853,9.75492 1.62853,9.75492 3.97531,9.36063 3.97532,9.3606 10.73747,17.31535 10.73746,17.31533 3.80046,8.35735 3.80046,8.35737 2.42614,7.56831 2.42625,7.56831 1.80347,-7.43914 1.80357,-7.43912 -0.77022,-12.76849 -0.77033,-12.7685 -3.52412,-8.58049 -3.52423,-8.58053 -8.53011,-13.45853 -8.53002,-13.45852 -2.55847,-7.25594 -2.55837,-7.25594 0.0971,-12.58037 0.0971,-12.58037 3.1878,-9.08589 3.18779,-9.08591 6.25435,-10.61209 6.25424,-10.61209 8.28268,-8.74709 8.28278,-8.74708 2.663,0.51726 2.66311,0.51727 -0.2625,6.96005 -0.26251,6.96003 -0.44336,16.07493 -0.44326,16.07493 3.3493,9.59899 3.34933,9.59898 10.77923,13.90569 10.77923,13.90569 8.24482,11.44024 8.24493,11.44026 6.8567,13.97802 6.85681,13.97802 2.95322,9.08576 2.95311,9.08574 1.54037,9.7847 1.54027,9.78468 -0.72633,18.17167 -0.72633,18.17166 -2.85218,10.48369 -2.85231,10.48373 -0.92008,2.2963 -0.92011,2.29632 21.63842,8.4019 21.6385,8.40191 55.89338,21.20466 55.89347,21.20466 1.97173,1.20565 1.97174,1.20562 0.0609,20.93754 0.0609,20.93753 0.89825,0.88971 0.89825,0.88972 12.52337,-1.65368 12.52339,-1.65368 17.65994,0.7432 17.66006,0.74316 10.07949,2.30931 10.07951,2.3093 7.46552,4.46748 7.46553,4.4675 2.76533,3.71377 2.76522,3.71377 0.14849,5.59489 0.14837,5.59481 -7.38978,7.73103 -7.38968,7.73112 1.6e-4,5.90156 1.3e-4,5.90165 3.39638,5.71393 3.39648,5.71402 9.30211,8.11266 9.30212,8.11263 6.52386,9.04503 6.52398,9.04503 2.8623,7.30367 2.8622,7.30378 0.05,12.06363 0.05,12.06373 -3.1847,8.42618 -3.18492,8.4263 -6.59862,8.10444 -6.59877,8.10443 -10.71259,7.20944 -10.7127,7.20956 -1.9026,0.62748 -1.90271,0.6276 2.38483,3.36844 2.3848,3.36854 1.2e-4,4.72111 1.2e-4,4.72109 -4.66594,4.61668 -4.66584,4.6166 -7.69593,2.26821 -7.69603,2.26811 -9.88952,1.52667 -9.88953,1.52654 -19.77926,-0.71283 -19.77925,-0.71283 -8.47686,-2.30724 -8.47686,-2.30735 -5.16637,-3.36659 -5.16627,-3.36659 -1.66953,-5.00432 -1.66941,-5.00444 2.71403,-5.42777 2.71414,-5.42775 -3.40157,-1.53336 -3.40157,-1.53336 -137.28776,54.44287 -137.28778,54.44286 -17.43547,7.08253 -17.43547,7.08266 -3.04996,-0.0535 -3.04996,-0.0534 z m 35.30681,-26.74788 -0.0133,-32.49929 -56.14687,-22.9447 -56.14684,-22.94472 -74.61169,-30.45139 -74.61167,-30.45149 -2.53548,-0.79607 -2.53548,-0.79616 -0.92389,8.76644 -0.9239,8.76632 -4.73726,9.87519 -4.73727,9.87519 -7.72628,7.8302 -7.72629,7.83022 3.64731,1.65978 3.6473,1.65968 55.80618,22.76702 55.80617,22.76713 26.84347,10.78524 26.84347,10.78512 47.32929,19.29766 47.32929,19.29767 12.71533,5.58558 12.71535,5.58559 0.35321,0.12454 0.3532,0.12454 z m 50.01556,16.53369 39.70982,-15.96534 90.41829,-35.94482 90.41839,-35.94471 17.65976,-6.89207 17.65987,-6.89214 1.16839,-1.13573 1.16851,-1.13572 -4.34179,-3.05871 -4.34179,-3.05861 -6.13414,-8.64497 -6.13402,-8.64498 -2.99049,-7.68789 -2.99049,-7.6879 -0.93155,-6.6397 -0.93166,-6.63955 -0.91136,2e-5 -0.91147,2e-5 -81.92939,32.56773 -81.92928,32.56772 -52.60174,20.9021 -52.60177,20.90208 -0.0238,32.49927 -0.0237,32.49929 0.90776,-2e-5 0.90778,-2e-5 z m -0.55644,-74.50396 40.26441,-16.06441 93.24391,-36.99987 93.24389,-36.99976 3.00647,-1.91323 3.00646,-1.91312 0.91082,-4.80457 0.91092,-4.80467 5.78351,-8.85379 5.7836,-8.8538 12.5852,-12.40505 12.5851,-12.40498 2.79033,-5.41182 2.79032,-5.41183 -5e-5,-2.30189 -7e-5,-2.30201 -1.76591,0.67594 -1.76602,0.67603 -57.21785,22.67937 -57.21784,22.67939 -30.37494,12.30149 -30.37483,12.30151 -26.13658,10.48972 -26.13659,10.48984 -47.0996,19.00536 -47.09957,19.00545 -1.29575,3e-5 -1.29576,4e-5 -13.76754,-5.72039 -13.76752,-5.72026 -79.82401,-31.91574 -79.82401,-31.91582 -34.61396,-14.23259 -34.61396,-14.2327 -27.54986,-10.90337 -27.54988,-10.90336 -0.46765,0.45321 -0.46766,0.45324 1.71152,3.16391 1.71149,3.16392 16.07515,16.65811 16.07516,16.65812 4.93335,10.14751 4.93335,10.14742 3e-5,1.38195 4e-5,1.38184 10.94931,4.30852 10.9493,4.30862 16.95379,6.9363 16.95377,6.9363 57.21898,23.38952 57.219,23.38949 14.83455,5.99839 14.83456,5.99836 14.12814,5.82113 14.12814,5.82121 8.47689,3.32166 8.47689,3.32163 13.42173,5.59993 13.42175,5.59983 2.82558,-0.80541 2.82558,-0.80532 z m -381.16011,2.4282 6.65349,-1.61338 4.6488,-3.08933 4.6488,-3.08922 0.42453,-3.56906 0.42455,-3.56906 -2.18954,-1.79779 -2.18953,-1.79778 -9.29685,2.31082 -9.29684,2.31071 -13.75159,1.29675 -13.75158,1.29672 -13.15346,-1.34607 -13.15347,-1.34611 -8.47741,-2.17326 -8.47741,-2.17317 -1.94422,0.7382 -1.94423,0.7382 0.0218,3.88787 0.0218,3.88784 1.03799,1.53804 1.038,1.53791 3.53206,1.87 3.53205,1.86988 9.88966,2.50944 9.88966,2.50943 22.60479,-0.56205 22.6048,-0.56203 z m 742.6031,-1.15039 8.94922,-2.8548 2.70626,-2.42326 2.70626,-2.42325 -0.0213,-2.92848 -0.0213,-2.92841 -1.21913,-1.90369 -1.21911,-1.90371 -12.53405,2.81968 -12.53404,2.81966 -12.00875,0.8566 -12.00885,0.85659 -12.0088,-1.4778 -12.0088,-1.47788 -9.07172,-2.2175 -9.07171,-2.21751 -1.93085,2.61269 -1.93074,2.61278 0.40653,2.66545 0.40663,2.66556 3.7466,2.7569 3.7466,2.75679 10.3815,2.61016 10.38149,2.6103 22.60487,-0.51603 22.60476,-0.51602 z m -744.47142,-22.6099 11.84971,-2.86116 9.69505,-5.04086 9.69505,-5.04099 6.39507,-5.5697 6.39508,-5.56979 3.96304,-5.78947 3.96302,-5.78949 0.85403,-2.32802 0.85403,-2.32801 -7.57145,3.4298 -7.57144,3.4298 -13.50883,3.39074 -13.50882,3.39084 -21.21336,1.72748 -21.21335,1.72747 -20.84011,-1.69605 -20.84011,-1.69607 -11.59489,-2.73973 -11.59489,-2.73972 -8.774213,-3.52722 -8.774221,-3.52721 -0.570552,0.56456 -0.570562,0.56454 3.464479,5.42963 3.464468,5.42959 8.088344,7.3135 8.088347,7.31351 11.50762,5.50447 11.50762,5.50437 9.18325,2.06884 9.18326,2.06871 4.94481,0.65365 4.94482,0.65354 14.12798,-0.5302 14.12799,-0.53017 z m 741.17277,9.8e-4 11.30236,-2.82835 10.09395,-4.89726 10.09394,-4.89735 7.46462,-6.63613 7.46461,-6.63621 3.98617,-6.21448 3.98617,-6.21449 -2e-5,-1.16001 -4e-5,-1.16012 -3.88509,1.96871 -3.88518,1.96861 -11.30234,3.63978 -11.30225,3.63986 -12.0583,2.03171 -12.05821,2.0318 -17.61052,0.94197 -17.61043,0.94208 -18.36651,-1.56635 -18.3664,-1.56623 -12.00884,-2.94707 -12.00895,-2.94719 -9.02546,-4.03084 -9.02556,-4.03096 -0.53966,1e-5 -0.53975,2e-5 2.91308,5.64914 2.91309,5.64926 8.06948,7.97921 8.06937,7.97931 9.88555,5.12251 9.88545,5.12247 9.1832,2.39194 9.18329,2.39193 7.77039,1.13351 7.77051,1.13351 14.12795,-0.57798 14.12796,-0.5781 z m -402.27434,-58.96905 -0.37619,-39.37476 -22.605,-8.91548 -22.60504,-8.91557 -41.67801,-16.16005 -41.678,-16.15995 -63.57663,-25.12838 -63.57664,-25.12844 -38.14597,-14.72735 -38.14597,-14.72735 -2.47243,-0.68929 -2.47241,-0.68932 5e-4,20.27417 5e-4,20.27415 10.12156,3.28277 10.12157,3.28279 6.47906,5.80335 6.47908,5.80348 1.8e-4,7.3053 1.8e-4,7.30543 -6.21447,5.45668 -6.21445,5.45657 0.79655,0.78804 0.79655,0.78814 29.43595,11.90388 29.43596,11.90388 11.30252,4.64681 11.30253,4.64681 19.07299,7.88732 19.07301,7.88743 61.4574,24.52447 61.45743,24.52435 26.84347,10.90308 26.84348,10.90306 4.94485,2.16476 4.94486,2.16476 4.6136,0.0545 4.6136,0.0545 z m 56.84361,15.25012 43.09,-17.46636 51.56663,-20.5626 51.56673,-20.5625 55.80509,-22.4727 55.80499,-22.47273 0.54123,-0.42575 0.54124,-0.42574 -4.2913,-4.83539 -4.29117,-4.83537 -0.9314,-4.19522 -0.93148,-4.19531 2.07449,-3.94599 2.07449,-3.9461 3.31298,-2.98749 3.31298,-2.9874 5.80008,-2.87887 5.80017,-2.87888 0.13579,-19.68505 0.13577,-19.68506 -0.99167,0.59888 -0.99165,0.59887 -58.6306,23.10381 -58.63072,23.10385 -52.27306,20.92043 -52.27305,20.92042 -42.38358,17.09932 -42.38364,17.0992 -5.29795,2.13524 -5.29794,2.13512 8.8e-4,36.29435 9e-4,36.29426 2.47238,-0.69637 2.47238,-0.6964 z m -381.86084,7.54309 13.01662,-2.74116 7.93711,-2.93844 7.93712,-2.93834 4.47647,-2.23743 4.47649,-2.23732 3.17872,-2.87583 3.17873,-2.87595 -1.6e-4,-6.7304 -1.6e-4,-6.73049 -2.67669,-6.96925 -2.67669,-6.96925 -6.34751,-8.77098 -6.34748,-8.77099 -10.61787,-9.41102 -10.61787,-9.41099 -3.10824,-6.35228 -3.10825,-6.35228 0.54314,-5.63655 0.54315,-5.63643 -2.87095,0.76453 -2.87095,0.76465 -15.54075,2.29367 -15.54075,2.29356 -16.24722,-0.88348 -16.24723,-0.88339 -8.47687,-2.04052 -8.47684,-2.04056 -1.0596,-0.0492 -1.05961,-0.0493 1.5e-4,5.84883 1.5e-4,5.84882 -2.82453,5.7732 -2.82453,5.7732 -14.72143,14.85115 -14.721404,14.85117 -4.231799,8.8222 -4.231788,8.8223 -0.983881,6.62168 -0.983861,6.62182 0.844586,3.32905 0.844597,3.32917 9.741487,5.06442 9.741496,5.0644 13.376007,3.52208 13.37601,3.52209 10.45634,1.29782 10.45634,1.29793 26.13679,-0.55186 26.13679,-0.55186 z m 723.16019,2.45887 15.43293,-1.53309 13.37906,-3.43529 13.37918,-3.4354 8.85742,-4.18265 8.8574,-4.18266 1.59599,-2.95087 1.5961,-2.95077 -0.9131,-7.68522 -0.9132,-7.68532 -5.23315,-9.91727 -5.23308,-9.91731 -13.6521,-13.27888 -13.65212,-13.27898 -3.1498,-6.00013 -3.14971,-6.00013 0.64301,-6.62242 0.64292,-6.62244 -10.00542,2.67619 -10.00554,2.67609 -22.60487,0.0824 -22.60477,0.0824 -7.80525,-1.56093 -7.80538,-1.56093 -3.92012,-0.97342 -3.92012,-0.97331 0.88178,3.47562 0.88178,3.47573 -1.60621,5.90243 -1.60621,5.90233 -16.62089,17.06608 -16.62099,17.06599 -3.80431,7.69392 -3.8044,7.69384 -1.37908,8.31545 -1.37908,8.31545 2.60012,3.49445 2.60015,3.49454 5.51847,3.13648 5.51847,3.13647 7.72245,2.89727 7.72254,2.89728 9.93761,2.01954 9.93761,2.01953 10.59604,1.19982 10.59604,1.1998 13.52939,0.18104 13.52952,0.18113 z m -324.97014,-98.92763 66.31674,-26.38545 55.09867,-22.04681 55.09866,-22.04683 34.43075,-13.5527 34.43072,-13.55271 -17.47763,-7.08315 -17.47766,-7.08315 -45.91638,-17.08447 -45.9165,-17.08443 -7.59307,-3.3099 -7.59308,-3.30989 -1.79019,4e-5 -1.7903,6e-5 -0.86624,3.41509 -0.86625,3.41508 -7.67175,11.34084 -7.67187,11.34083 1.67451,0.64464 1.6745,0.64462 23.31143,8.90122 23.31142,8.90121 8e-5,3.30476 8e-5,3.30473 -24.72383,9.94983 -24.72373,9.94981 -60.74977,24.51445 -60.74985,24.5145 -20.33381,8.52117 -20.3338,8.52118 -1.5623,4e-5 -1.56229,4e-5 -62.87231,-24.65863 -62.87232,-24.65872 -40.41515,-16.46878 -40.41515,-16.46876 -5.50132,-2.55721 -5.50134,-2.55718 -0.41833,-2.88899 -0.41834,-2.88898 28.85437,-11.12398 28.85437,-11.12395 -7.55085,-12.54066 -7.55085,-12.54067 -0.0471,-1.74726 -0.0471,-1.74733 -2.15388,5e-5 -2.15388,6e-5 -33.51902,12.46389 -33.51902,12.46389 -13.42148,5.12518 -13.42147,5.1252 -21.1854,7.63685 -21.18541,7.63684 -1.10863,1.09691 -1.10861,1.09692 10.28554,3.93212 10.28552,3.93211 49.4485,19.23981 49.44847,19.23977 72.75993,28.58121 72.75992,28.58115 29.66908,11.42111 29.6691,11.421 2.82563,1.26437 2.82563,1.26425 2.20346,0.0942 2.20347,0.0943 z m -423.22418,-14.13125 12.00284,-1.36548 7.42307,-2.31035 7.42306,-2.31026 -3e-5,-1.28382 -3e-5,-1.28382 -7.41729,-3.34357 -7.41729,-3.3437 -9.18323,-1.46047 -9.18324,-1.46036 -12.7152,3.3e-4 -12.7152,2.9e-4 -9.18317,1.47045 -9.18317,1.47045 -8.12351,3.60257 -8.1235,3.6027 2e-5,0.98569 3e-5,0.98556 8.12365,2.37697 8.12366,2.37696 8.47682,1.1681 8.47684,1.16798 10.596,0.15962 10.59601,0.15963 z m 756.44596,-2.74508 11.18783,-2.88264 0.81863,-0.80999 0.81862,-0.80997 -2.82346,-2.04592 -2.82336,-2.04593 -9.88975,-3.08131 -9.88963,-3.08132 -21.19201,4.9e-4 -21.192,5.2e-4 -7.77032,1.93714 -7.77042,1.93726 -5.34784,2.65962 -5.34786,2.65961 0.82833,1.32585 0.82823,1.32584 7.40028,2.12831 7.40042,2.12832 8.42183,1.31162 8.42185,1.31161 18.36635,-0.54328 18.36636,-0.54329 z m -396.51653,-10.681 15.17448,-6.41709 57.21785,-22.97654 57.21784,-22.97651 6.35754,-2.70415 6.35753,-2.70413 14.12783,-5.84379 14.12793,-5.84381 4.9327,-2.05841 4.93281,-2.0584 -13.40978,-4.75438 -13.40967,-4.75435 -6.44657,-2.6997 -6.44658,-2.69968 -9.09412,8.46472 -9.09412,8.46471 -8.47666,6.01154 -8.47664,6.01153 -12.71506,6.33036 -12.71505,6.33036 -10.91199,3.51234 -10.91199,3.51232 -4.99737,0.92769 -4.99737,0.9277 -2.10377,-1.72735 -2.10378,-1.72736 -4e-5,-1.62157 -4e-5,-1.62154 16.54977,-5.3896 16.54965,-5.3896 8.52725,-3.78977 8.52737,-3.78978 8.40302,-5.32356 8.40314,-5.32357 12.60608,-12.0113 12.60619,-12.01129 6.14802,-8.51112 6.14789,-8.51112 4.927,-10.3597 4.92699,-10.3597 3.70787,-12.58046 3.70796,-12.58045 0.76303,-17.47281 0.7629,-17.47275 -2.45211,-11.88141 -2.45209,-11.88139 -3.29579,-8.69002 -3.29579,-8.69003 -5.1002,-10.05405 -5.10011,-10.05405 -5.22402,-7.81163 -5.22402,-7.81162 -10.64211,-13.28155 -10.642,-13.28154 -4.31538,-6.98898 -4.3154,-6.989 -2.69348,-7.68794 -2.69338,-7.68794 -0.011,-16.13835 -0.011,-16.13835 -4.46619,5.28921 -4.46618,5.28922 -2.93318,4.69602 -2.93328,4.69601 -3.77004,9.64794 -3.77003,9.64794 -0.11677,12.58036 -0.11678,12.58038 3.7622,7.97336 3.76221,7.97337 8.58618,13.82316 8.58616,13.82316 2.82463,10.926 2.82464,10.92598 2.9e-4,11.43427 2.8e-4,11.43424 -2.77896,10.7514 -2.77886,10.75137 -2.84095,6.35458 -2.84084,6.35457 -2.47418,-0.47137 -2.47417,-0.47136 -0.98467,-3.48095 -0.98478,-3.48094 -2.42432,-11.18248 -2.42379,-11.18252 -4.49773,-10.48352 -4.49783,-10.48354 -11.2887,-18.17135 -11.28879,-18.17137 -3.62215,-9.08574 -3.62225,-9.08574 -1.58429,-7.40732 -1.58417,-7.4073 -2.2e-4,-8.67033 -2.1e-4,-8.67034 2.84413,-14.6744 2.84403,-14.67437 1.6053,-17.07623 1.6053,-17.07618 -1.62572,-15.86145 -1.6256,-15.86144 -2.89913,-10.94992 -2.89912,-10.94991 -2.91815,-8.53052 -2.91813,-8.53047 -9.65428,-19.56924 -9.65435,-19.56923 -6.54422,-10.95029 -6.54422,-10.95031 -0.459,0.466834 -0.45899,0.466803 -1.64797,13.978243 -1.64796,13.97823 -4.10008,12.21298 -4.1001,12.21296 -3.50299,6.83996 -3.50301,6.83996 -8.7125,11.44033 -8.7125,11.44033 -19.2514,19.83327 -19.25139,19.83324 -5.24433,6.36545 -5.2443,6.36543 -4.28131,9.05251 -4.28131,9.05251 -0.86545,8.34104 -0.86547,8.34103 2.97496,20.03087 2.97496,20.03087 2.2e-4,8.85084 2.2e-4,8.85081 -1.99442,10.25721 -1.9944,10.25719 -2.99587,7.89051 -2.99586,7.89053 -4.16448,5.68824 -4.16449,5.68823 -4.19606,2.147 -4.19603,2.14696 -4.86861,1.2e-4 -4.86861,1.3e-4 -4.38488,-4.94091 -4.38487,-4.94089 -2.6e-4,-10.83083 -2.8e-4,-10.83071 5.08749,-24.41569 5.08748,-24.4157 -0.80042,-6.78282 -0.80044,-6.78283 -3.4688,-5.79743 -3.4688,-5.79745 -6.26602,-6.03302 -6.26601,-6.03304 -0.82861,15.11902 -0.82858,15.11903 -2.0775,6.4559 -2.07747,6.4559 -3.14978,6.10895 -3.14977,6.10895 -12.36627,18.28187 -12.36627,18.28186 -4.92522,9.69059 -4.9252,9.69055 -3.62457,11.37202 -3.62457,11.37205 -1.61932,12.04155 -1.6193,12.04156 1.61663,12.23087 1.61661,12.23089 4.64048,13.49996 4.64048,13.49999 6.23846,10.80056 6.23847,10.80056 8.91489,10.34473 8.91491,10.34472 10.53028,8.27886 10.53027,8.27889 8.84585,4.89414 8.84584,4.89412 9.85526,3.65188 9.85526,3.65185 1.19997,1.1556 1.19997,1.15559 -0.94188,2.93638 -0.94188,2.93636 -1.88914,5e-5 -1.88914,4e-5 -13.30742,-5.29804 -13.30744,-5.29802 -12.61136,-8.301 -12.61136,-8.30104 -10.88298,-10.28561 -10.88297,-10.2856 -23.02428,8.7273 -23.02426,8.72732 -0.35751,0.25301 -0.35751,0.253 38.50351,15.74524 38.50351,15.74523 60.75101,24.12668 60.751,24.12674 3.89818,0.19207 3.89817,0.19216 z m -56.55615,-48.14951 -6.74081,-1.12162 -9.50649,-3.01271 -9.5065,-3.01271 -8.58708,-4.72043 -8.58709,-4.72043 -9.79134,-10.20001 -9.79134,-10.2 -5.15125,-10.48352 -5.15127,-10.48351 -2.51755,-9.78469 -2.51754,-9.78466 0.11029,-16.77382 0.11029,-16.77383 3.70718,-12.33214 3.70719,-12.33214 2.69877,-5.23426 2.69879,-5.23426 2.2224,-1.82497 2.22241,-1.82498 1.92623,1.5816 1.92624,1.5816 0.94033,7.91427 0.94033,7.91428 2.69517,6.02786 2.69517,6.02786 3.73541,4.84522 3.73542,4.84519 5.9839,2.86585 5.98387,2.86585 5.55834,-0.0307 5.55835,-0.0307 5.65114,-2.56502 5.65113,-2.56501 4.09509,-4.04417 4.09507,-4.04415 3.41541,-7.31703 3.41541,-7.31703 1.1175,-10.97009 1.11747,-10.97013 -1.22298,-8.9704 -1.22298,-8.97041 -4.36293,-18.87044 -4.36294,-18.87045 0.63015,-18.17167 0.63017,-18.17164 3.90714,-11.88156 3.90715,-11.88155 6.04266,-12.81552 6.04264,-12.81553 7.77198,-13.04446 7.77195,-13.04446 11.27758,-15.37627 11.27758,-15.37629 3.04256,-2.70227 3.04257,-2.70228 2.20099,2.17755 2.20101,2.17756 -2.24458,13.97073 -2.24458,13.97073 0.0262,11.71466 0.0262,11.71465 2.08959,14.54348 2.08958,14.5435 4.16142,16.20838 4.16143,16.20836 5.15015,14.67697 5.15018,14.67698 8.16672,19.56926 8.16672,19.56927 4.2904,11.88135 4.29029,11.88135 2.2246,6.98904 2.22468,6.98905 2.37388,10.48359 2.37397,10.48356 -0.043,18.17163 -0.043,18.17166 -2.98652,11.18262 -2.98653,11.18262 -6.00647,11.88161 -6.00648,11.8816 -10.69672,10.7742 -10.69666,10.77424 -7.61715,3.49187 -7.61714,3.49187 -1.83531,-1.50695 -1.83529,-1.50692 0.0421,-2.27502 0.0419,-2.27506 8.6324,-4.89254 8.6324,-4.89258 8.1203,-8.76752 8.12024,-8.76752 5.14274,-9.68333 5.14263,-9.68334 2.78585,-10.77787 2.78574,-10.77787 -4e-4,-16.57472 -4.2e-4,-16.5746 -2.96211,-13.52508 -2.96203,-13.52506 -4.25375,-11.96056 -4.25374,-11.96057 -11.75019,-28.65501 -11.75016,-28.655 -5.0788,-16.58843 -5.07877,-16.58843 -3.73142,-17.65791 -3.7314,-17.6579 -0.12938,-23.28395 -0.12937,-23.28396 -1.79227,1.46109 -1.79223,1.4611 -9.98946,15.53297 -9.98946,15.53295 -8.20174,16.77401 -8.20175,16.77403 -3.87312,11.88155 -3.87312,11.88156 -0.65271,16.07493 -0.6527,16.07493 4.27076,18.87044 4.27077,18.87046 1.48076,10.64683 1.48076,10.64682 -1.32408,11.48883 -1.3241,11.48884 -3.4176,7.38636 -3.41762,7.38636 -5.19824,5.69312 -5.19827,5.69311 -7.24994,3.57471 -7.24997,3.57471 -8.45974,2e-4 -8.45975,2.1e-4 -6.06615,-2.90524 -6.06615,-2.90525 -6.31762,-6.95187 -6.31762,-6.95186 -2.70627,-7.17728 -2.70625,-7.17728 -1.41689,2.70714 -1.41688,2.70715 -1.95204,7.68805 -1.95203,7.68806 0.0775,16.07491 0.0775,16.07491 3.21864,9.78465 3.21864,9.78466 4.38247,7.68789 4.38249,7.6879 9.98198,9.83604 9.982,9.83603 9.18331,4.38282 9.1833,4.38283 8.47686,2.1523 8.47686,2.1523 13.7749,0.95743 13.7749,0.95745 1.57082,1.87257 1.57084,1.87257 -0.82007,2.11453 -0.82007,2.11456 -11.69995,-0.16412 -11.69994,-0.16414 z m 28.57037,-38.04323 -4.72423,-3.14973 -2.90211,-4.88754 -2.90209,-4.88756 0.10095,-9.08581 0.10094,-9.08582 2.55649,-4.89244 2.55649,-4.8924 8.17637,-13.27954 8.17632,-13.27948 2.50558,-8.38698 2.50558,-8.38696 0.0811,-13.27929 0.081,-13.27927 2.9282,-0.41425 2.92819,-0.41427 5.92847,8.36155 5.92847,8.36154 4.88077,10.22403 4.88076,10.22402 2.33037,9.08576 2.3304,9.08577 -0.72375,12.58038 -0.72374,12.58039 -3.19309,8.07926 -3.19311,8.07926 -5.61089,6.30703 -5.6109,6.30704 -5.42277,2.73732 -5.42279,2.73734 -6.91136,1.6e-4 -6.91136,1.6e-4 z m 22.09416,-8.8549 5.63841,-3.61743 3.37225,-4.86955 3.37225,-4.86955 2.52803,-7.23875 2.52804,-7.23875 0.025,-9.78475 0.025,-9.78473 -2.08553,-8.75067 -2.08551,-8.75066 -4.19336,-8.023 -4.19336,-8.023 -1.23969,-1.80874 -1.23969,-1.80873 -0.23784,6.22554 -0.23785,6.22554 -2.79229,8.94528 -2.79229,8.94528 -7.2835,11.79893 -7.28343,11.79886 -2.53721,4.97983 -2.5372,4.97984 -0.31465,3.40714 -0.31463,3.40715 0.21983,4.43567 0.21983,4.43566 3.6577,4.30062 3.65769,4.3006 5.24282,-1.2e-4 5.24282,-1.3e-4 z m -406.14223,85.29156 9.01928,-2.67848 24.01762,0.0676 24.01761,0.0676 9.01941,2.61032 9.01941,2.61031 6.72138,4.57426 6.72138,4.57428 0.85976,-0.85076 0.85977,-0.85068 -9e-5,-3.71675 -1e-4,-3.71687 -3.17887,-2.9343 -3.17887,-2.93429 -7.77047,-3.02665 -7.77048,-3.02657 -10.36714,-1.97025 -10.36713,-1.97026 -14.35692,0.005 -14.35693,0.005 -12.2156,1.96225 -12.21562,1.96226 -6.15067,2.74353 -6.15069,2.74352 -4.12395,4.34902 -4.12398,4.34892 1.63683,3.55422 1.63683,3.55412 6.88947,-4.68917 6.88947,-4.68908 z m 731.0541,3.84513 5.74487,-2.85096 11.71796,-2.19953 11.71786,-2.19964 13.61872,0.0105 13.61872,0.0104 8.88182,1.42588 8.8817,1.42576 7.74077,2.8653 7.74077,2.86523 4.1107,3.42206 4.11069,3.42208 2.22487,-3.14284 2.22487,-3.14296 -2e-5,-0.89624 -2e-5,-0.89614 -3.88522,-3.86942 -3.88533,-3.86942 -5.98681,-2.55397 -5.9867,-2.554 -11.47626,-2.1536 -11.47616,-2.15372 -15.03159,0.002 -15.03149,0.002 -11.65587,2.02983 -11.65599,2.02985 -6.71037,2.93599 -6.71037,2.93601 -3.88514,3.6812 -3.88504,3.68122 5e-5,2.25462 6e-5,2.2545 1.68545,1.66759 1.68554,1.66748 2.90609,-2.6281 2.906,-2.62822 z"
       id="path1" />
  </g>
</svg>
