<?xml version="1.0" encoding="UTF-8" standalone="no"?>
<!-- Created with Inkscape (http://www.inkscape.org/) -->

<svg
   version="1.1"
   id="svg1"
   width="466.66666"
   height="466.66666"
   viewBox="0 0 466.66666 466.66666"
   sodipodi:docname="Logo.svg"
   inkscape:version="1.4.3 (0d15f75, 2025-12-25)"
   xmlns:inkscape="http://www.inkscape.org/namespaces/inkscape"
   xmlns:sodipodi="http://sodipodi.sourceforge.net/DTD/sodipodi-0.dtd"
   xmlns="http://www.w3.org/2000/svg"
   xmlns:svg="http://www.w3.org/2000/svg">
  <defs
     id="defs1" />
  <sodipodi:namedview
     id="namedview1"
     pagecolor="#ffffff"
     bordercolor="#000000"
     borderopacity="0.25"
     inkscape:showpageshadow="2"
     inkscape:pageopacity="0.0"
     inkscape:pagecheckerboard="0"
     inkscape:deskcolor="#d1d1d1"
     inkscape:zoom="0.99500828"
     inkscape:cx="213.56606"
     inkscape:cy="194.97325"
     inkscape:window-width="1512"
     inkscape:window-height="949"
     inkscape:window-x="0"
     inkscape:window-y="33"
     inkscape:window-maximized="0"
     inkscape:current-layer="g1" />
  <g
     inkscape:groupmode="layer"
     inkscape:label="Image"
     id="g1">
    <path
       style="fill:#ffd700;fill-opacity:1"
       d="m 153.9699,444.67768 c -2.38334,-0.50256 -5.39296,-0.93226 -6.68805,-0.95487 -1.29509,-0.0226 -3.99509,-0.5011 -6,-1.06332 -2.00491,-0.56221 -5.29529,-1.44078 -7.31195,-1.95236 -6.59307,-1.67252 -10.96298,-3.01672 -13.10076,-4.02984 -1.15541,-0.54757 -2.54227,-0.99558 -3.08192,-0.99558 -2.54487,0 -20.928495,-9.02366 -28.483995,-13.98147 -11.659468,-7.65076 -16.178788,-11.26474 -27.53443,-22.01853 -8.577985,-8.12336 -22.035839,-25.5308 -26.28571,-34 -0.459986,-0.91667 -1.718694,-3.16667 -2.797128,-5 -1.078433,-1.83333 -1.980724,-4.00833 -2.00509,-4.83333 -0.02437,-0.825 -0.312205,-1.5 -0.639643,-1.5 -0.928052,0 -1.523398,-2.14793 -0.796751,-2.87458 0.424379,-0.42438 0.805934,-0.0368 1.094127,1.11148 0.24338,0.9697 0.784986,1.76499 1.20357,1.76731 0.672004,0.004 1.291265,0.81184 4.098631,5.34863 0.368996,0.59631 1.198535,1.61183 1.84342,2.25672 0.644885,0.64488 1.992979,2.26959 2.995764,3.61046 4.134371,5.52825 10.873154,12.42602 18.489913,18.92615 10.095384,8.61538 11.30666,9.58777 14.350679,11.52049 1.73249,1.1 4.36547,2.81497 5.85108,3.81103 3.54354,2.37588 11.850678,6.71459 18.248748,9.53109 7.774425,3.42238 23.113695,8.35003 25.943535,8.33421 0.95006,-0.005 3.20006,0.4372 5,0.98337 7.16242,2.17335 33.23043,2.7988 41.93929,1.00625 1.46667,-0.30188 4.91667,-1.01353 7.66667,-1.58144 7.20797,-1.48854 17.602,-5.16016 24.71824,-8.73155 18.09693,-9.08222 25.68772,-14.28167 36.61921,-25.08302 8.58123,-8.47905 10.39032,-10.71621 18.31596,-22.64981 7.20373,-10.84665 12.70487,-22.68681 16.23995,-34.95346 4.5702,-15.85851 6.04827,-30.36213 4.80393,-47.13871 -0.43536,-5.86966 -1.07275,-11.31467 -1.41642,-12.10003 -0.34367,-0.78536 -1.04552,-3.52793 -1.55965,-6.09459 -0.85897,-4.2881 -2.1956,-8.64542 -3.68108,-12 -5.52574,-12.4785 -9.27417,-18.76538 -17.09194,-28.66667 -4.78005,-6.05397 -13.47857,-14.76719 -16.83552,-16.86396 -1.00034,-0.62482 -3.79802,-2.56104 -6.21707,-4.3027 -2.41905,-1.74167 -4.69471,-3.16667 -5.05704,-3.16667 -0.36232,0 -1.37422,-0.53956 -2.24867,-1.19903 -3.42345,-2.5818 -20.80321,-9.43262 -24.09256,-9.4969 -0.82354,-0.0161 -2.69734,-0.466 -4.16401,-0.99978 -1.46667,-0.53379 -7.27408,-1.29795 -12.90537,-1.69813 -11.35176,-0.8067 -25.03478,-0.0267 -29.7613,1.69644 -1.46666,0.53472 -3.56666,0.99556 -4.66666,1.02409 -1.1,0.0285 -3.2,0.63153 -4.66667,1.33998 -1.46667,0.70845 -3.05813,1.29827 -3.53658,1.31071 -1.82209,0.0474 -14.03899,6.01879 -20.34052,9.94209 -2.1324,1.32762 -6.07368,4.13886 -8.75839,6.2472 -4.44288,3.48903 -6.36451,4.52427 -6.36451,3.42877 0,-1.51766 13.01506,-15.62466 19.61006,-21.2553 3.45968,-2.95379 4.79853,-3.92514 9.16447,-6.64897 23.51306,-14.66933 47.77555,-21.2626 73.65053,-20.01433 9.56742,0.46155 27.23424,3.75904 35.0318,6.53865 6.08733,2.16995 7.55211,1.94424 7.88819,-1.21549 0.36458,-3.42767 -0.015,-3.99349 -3.85381,-5.74504 -4.96668,-2.26614 -8.74688,-3.74683 -10.82458,-4.23993 -0.91666,-0.21756 -3.16666,-0.82943 -5,-1.35971 -16.94961,-4.90263 -43.26341,-5.66648 -59.99999,-1.74172 -8.66555,2.03209 -13.54054,3.43303 -15.49624,4.45321 -1.0104,0.52707 -2.24081,0.96016 -2.73424,0.96242 -0.49342,0.002 -1.69342,0.42576 -2.66666,0.94111 -0.97324,0.51535 -3.56953,1.78849 -5.76953,2.8292 -4.30556,2.03674 -13.12091,6.90861 -13.66667,7.55299 -0.18333,0.21646 -2.05779,1.52388 -4.16547,2.90536 -6.97262,4.57024 -18.93934,15.58133 -26.09572,24.01179 -3.686895,4.34328 -10.006025,13.6426 -12.519475,18.42382 -1.06203,2.02024 -2.20387,4.12317 -2.53743,4.67317 -3.770788,6.2175 -9.372328,21.41645 -11.916388,32.33333 -4.112923,17.64909 -4.329381,43.49324 -0.45786,54.66666 0.50819,1.46667 1.12251,3.71667 1.36515,5 0.39085,2.06714 2.92383,9.09913 4.30555,11.95291 8.283308,17.10816 12.291758,23.11302 22.233523,33.30686 10.60085,10.86963 23.87791,19.79894 36.78812,24.74133 2.2,0.84223 4.94534,1.93653 6.10076,2.43178 1.15541,0.49525 2.68273,0.90046 3.39404,0.90046 0.71131,0 2.76597,0.45035 4.56592,1.00079 1.79994,0.55043 7.60668,1.46255 12.90386,2.02693 7.83966,0.83527 11.12599,0.88866 17.66667,0.28702 8.08661,-0.74383 18.04211,-2.67533 22.36875,-4.33984 1.28334,-0.49371 3.08334,-1.09399 4,-1.33395 0.91667,-0.23997 3.85312,-1.45735 6.52544,-2.7053 2.67232,-1.24794 5.00947,-2.26899 5.19366,-2.26899 0.18419,0 1.14774,-0.55307 2.14123,-1.22904 0.99349,-0.67597 3.15634,-2.09423 4.80634,-3.15168 1.65,-1.05745 4.98493,-3.42938 7.41096,-5.27096 2.42603,-1.84157 5.09128,-3.79832 5.92278,-4.34832 0.83151,-0.55 2.03991,-1.54758 2.68535,-2.21685 1.68289,-1.74502 2.22283,-0.27051 0.63849,1.74365 -0.72834,0.92593 -1.32425,1.99159 -1.32425,2.36814 0,1.16334 -16.80563,17.67958 -20.67626,20.32022 -2.01139,1.37222 -4.40707,3.05656 -5.32374,3.74296 -6.55096,4.90542 -19.09576,11.50425 -27.33333,14.37791 -4.38185,1.5286 -14.73294,4.0581 -22,5.37613 -13.02447,2.36227 -36.20598,1.17672 -47.71366,-2.44018 -2.22585,-0.69959 -4.47585,-1.27383 -5,-1.27609 -0.52415,-0.002 -1.7578,-0.42398 -2.74143,-0.93716 -0.98364,-0.51319 -2.78364,-1.15133 -4,-1.41811 -1.21637,-0.26678 -3.25713,-1.04505 -4.53504,-1.7295 -1.2779,-0.68445 -2.73161,-1.24445 -3.23047,-1.24445 -0.498855,0 -1.703305,-0.43075 -2.676545,-0.95721 -0.97324,-0.52646 -4.61952,-2.35614 -8.10286,-4.06594 -9.254718,-4.5427 -17.684712,-9.54987 -22.568775,-13.40518 -11.464846,-9.04995 -19.253774,-16.66334 -24.431219,-23.88062 -0.733333,-1.02225 -1.960614,-2.64594 -2.727291,-3.60818 -3.048299,-3.82588 -7.114415,-10.71429 -10.650879,-18.04367 -2.044967,-4.23823 -4.146457,-8.50215 -4.669976,-9.4754 -0.523519,-0.97324 -0.962033,-2.17324 -0.974474,-2.66666 -0.01244,-0.49343 -0.602262,-2.09714 -1.310713,-3.56381 -0.70845,-1.46666 -1.29827,-3.04047 -1.310712,-3.49734 -0.01244,-0.45688 -0.577415,-2.55688 -1.255496,-4.66667 -2.852088,-8.87404 -3.749795,-14.34784 -5.203441,-31.72816 -0.569283,-6.80655 0.873705,-23.60105 2.49628,-29.05343 0.700353,-2.35342 1.269023,-4.90342 1.263711,-5.66667 -0.0204,-2.93169 4.83193,-16.96067 9.01168,-26.05439 8.113236,-17.65167 14.43822,-27.54147 26.647758,-41.66667 9.735889,-11.26343 28.824649,-26.34759 41.760977,-33 9.862575,-5.07175 15.164635,-7.66723 15.669875,-7.67077 0.32232,-0.002 1.33603,-0.38887 2.2527,-0.85913 0.91667,-0.47026 4.36667,-1.70698 7.66667,-2.74826 3.3,-1.04128 7.13107,-2.30467 8.51349,-2.80754 1.38242,-0.50286 3.33242,-0.92746 4.33333,-0.94356 1.00091,-0.0161 3.01984,-0.47086 4.48651,-1.0106 2.43743,-0.89697 9.01793,-2.01512 21.33333,-3.62492 12.13282,-1.58593 41.27644,0.1838 49.33334,2.99573 1.46666,0.51188 4.16666,1.21709 6,1.56713 1.83333,0.35004 4.38333,1.0019 5.66666,1.44858 1.28334,0.44668 3.83333,1.33207 5.66667,1.96753 7.77619,2.69535 11.78584,4.38131 19.52243,8.20872 6.9882,3.45717 8.31301,3.91141 9.03401,3.09752 1.04456,-1.17913 2.32409,-4.90411 3.12783,-9.1058 0.3347,-1.74971 1.38527,-6.03129 2.33459,-9.51463 0.94932,-3.48333 2.12269,-7.98333 2.6075,-10 0.48481,-2.01666 1.1956,-4.56666 1.57954,-5.66666 1.22801,-3.5183 6.16922,-24.22992 6.14484,-25.75678 -0.01,-0.59956 0.42495,-2.54956 0.96562,-4.33333 1.18084,-3.89583 2.73272,-9.79686 4.00875,-15.243222 0.51544,-2.2 1.54274,-6.1 2.2829,-8.66667 0.74015,-2.56667 1.81191,-6.46667 2.38169,-8.66667 0.56978,-2.2 1.47346,-5.65 2.00818,-7.66666 0.53472,-2.01667 1.29482,-5.36566 1.6891,-7.44221 0.46117,-2.42879 1.12046,-3.94575 1.84828,-4.25271 1.55875,-0.6574 67.90287,-1.95474 70.9292,-1.387 1.9176,0.35974 3.628,1.69339 7.98781,6.2283 9.46332,9.8434 20.16722,21.02298 21.21439,22.15714 0.55,0.59569 3.7,3.92493 7,7.3983 3.3,3.473372 8.7,9.308202 12,12.966282 3.3,3.65808 8.85,9.6357 12.33333,13.28359 15.78182,16.5274 22.58622,23.5342 25.84815,26.61704 5.47969,5.17882 6.15984,6.64694 6.10447,13.17662 -0.0261,3.07339 -0.31249,8.28798 -0.63653,11.58798 -0.32403,3.3 -1.04231,12.02335 -1.59617,19.38523 -0.55386,7.36188 -1.15891,13.81188 -1.34455,14.33334 -0.18565,0.52145 -0.65571,5.89703 -1.04458,11.94574 -0.46438,7.22324 -1.00101,11.29162 -1.56361,11.85423 -0.91262,0.91261 -4.80705,1.74662 -13.43384,2.8769 -2.93334,0.38432 -7.28334,1.12605 -9.66667,1.64828 -2.38333,0.52223 -5.83333,1.11868 -7.66667,1.32545 -5.25153,0.59229 -20.20305,2.93539 -25.33333,3.97008 -2.56667,0.51765 -6.46667,1.13576 -8.66667,1.37357 -2.19999,0.23782 -5.79999,0.84528 -7.99999,1.34993 -2.2,0.50464 -5.5,0.92407 -7.33334,0.93206 -1.83333,0.008 -5.82734,0.61243 -8.87556,1.34319 -3.04823,0.73076 -6.6602,1.32866 -8.0266,1.32866 -1.36641,0 -4.2724,0.46973 -6.45777,1.04385 -2.18537,0.57411 -6.65835,1.34741 -9.93996,1.71844 -8.35045,0.94412 -11.55152,2.87125 -8.70011,5.23771 0.55,0.45646 1,1.32644 1,1.93329 0,0.60686 0.40959,1.69512 0.9102,2.41837 0.50061,0.72326 1.13398,2.06501 1.40749,2.98168 0.27351,0.91666 0.90051,2.56666 1.39334,3.66666 2.59172,5.78475 4.6213,12.7434 7.77766,26.66667 1.4039,6.19286 1.5083,8.15913 1.46889,27.66666 -0.039,19.31437 -0.15941,21.46217 -1.5,26.75778 -0.80167,3.16678 -1.45758,6.53571 -1.45758,7.48651 0,0.9508 -0.44859,2.8598 -0.99687,4.24222 -0.54828,1.38242 -1.27707,3.86349 -1.61952,5.51349 -1.70804,8.22952 -9.34913,25.77655 -15.0972,34.66927 -1.0656,1.64857 -2.31052,3.7474 -2.7665,4.66407 -0.87106,1.75112 -2.23584,3.66666 -9.97471,14 -6.00858,8.02295 -18.6972,20.98544 -24.21872,24.74143 -1.2871,0.87554 -4.1371,2.96418 -6.33333,4.6414 -8.92432,6.81537 -23.20397,15.75995 -27.10424,16.97773 -0.85556,0.26714 -2.14732,0.89529 -2.87058,1.3959 -0.72325,0.50061 -1.72791,0.9102 -2.23258,0.9102 -0.50466,0 -1.86291,0.43529 -3.01833,0.9673 -3.70999,1.70828 -17.97528,6.22609 -21.97266,6.95872 -2.12955,0.3903 -4.22069,0.9252 -4.64698,1.18866 -0.42628,0.26346 -4.38392,1.06324 -8.79475,1.77729 -10.47097,1.69509 -39.66713,2.18051 -46.35302,0.77067 z M 354.63656,189.61624 c 5.68333,-0.36839 21.05974,-0.93963 34.16979,-1.26942 28.68748,-0.72163 31.83021,-0.99748 31.83021,-2.79378 0,-2.00405 -28.03478,-29.87133 -30.05088,-29.87133 -1.44319,0 -5.44736,1.36477 -11.04987,3.76621 -1.15542,0.49525 -2.46008,0.90046 -2.89925,0.90046 -0.43917,0 -1.89383,0.48977 -3.23258,1.08838 -5.0588,2.262 -8.0059,3.47202 -16.10075,6.61067 -4.58334,1.77711 -8.92509,3.62183 -9.64834,4.09936 -0.72325,0.47754 -1.71657,0.86826 -2.20736,0.86826 -0.4908,0 -3.44179,1.2 -6.55775,2.66666 -3.11597,1.46667 -5.93621,2.66667 -6.2672,2.66667 -0.331,0 -2.93826,1.08437 -5.79392,2.40972 -2.85565,1.32534 -6.3921,2.93903 -7.85877,3.58598 -1.46666,0.64695 -4.01666,1.79497 -5.66666,2.55117 -1.65,0.7562 -3.825,1.57502 -4.83334,1.81962 -1.93404,0.46915 -2.39729,1.31581 -1,1.82766 1.32832,0.48658 35.81974,-0.19078 47.16667,-0.92629 z m -66.84079,-3.26786 c 1.36824,-0.73333 2.83042,-1.33333 3.24929,-1.33333 0.41886,0 1.11904,-0.43072 1.55594,-0.95715 0.43689,-0.52643 1.74863,-1.16476 2.91496,-1.41852 1.16633,-0.25375 2.71235,-0.87303 3.4356,-1.37618 0.72326,-0.50315 1.71683,-0.91482 2.20795,-0.91482 0.88793,0 6.86709,-2.55499 10.24658,-4.37852 0.97324,-0.52515 2.33149,-0.95481 3.01833,-0.95481 0.68684,0 1.84055,-0.39067 2.5638,-0.86816 0.72325,-0.47749 3.56501,-1.71522 6.31501,-2.75051 2.75,-1.0353 5.9,-2.28351 7,-2.77381 4.85769,-2.1652 8.56044,-3.60752 9.26128,-3.60752 0.41715,0 1.87793,-0.6 3.24617,-1.33334 1.36824,-0.73333 2.81846,-1.33333 3.22271,-1.33333 0.40425,0 1.83034,-0.48977 3.16908,-1.08838 6.68134,-2.9875 7.89203,-3.48837 9.43409,-3.90292 0.91667,-0.24643 2.56667,-0.83775 3.66667,-1.31404 1.1,-0.47629 4.1,-1.6634 6.66666,-2.638 6.95362,-2.64041 12.23565,-5.17706 13.35452,-6.4134 0.89858,-0.99292 0.43793,-1.73398 -4.78173,-7.69255 -3.17686,-3.62658 -8.68867,-9.59909 -12.24848,-13.27225 -3.5598,-3.67315 -9.42262,-9.97846 -13.0285,-14.01179 -9.58491,-10.72116 -12.25521,-13.60497 -15.92489,-17.19826 l -3.29574,-3.22713 -1.20926,1.54603 c -0.66509,0.85031 -2.2897,3.64603 -3.61023,6.21269 -1.32052,2.56667 -2.62709,4.96667 -2.90347,5.33333 -0.639,0.84774 -5.70993,10.34986 -11.02903,20.66667 -5.88226,11.4091 -11.09771,21.22323 -11.69129,22 -1.04163,1.3631 -17.11352,32.54435 -19.15698,37.16667 l -1.39994,3.16666 h 1.63159 c 0.89738,0 2.75107,-0.6 4.11931,-1.33333 z M 429.3366,172.22579 c 0.28684,-3.04924 0.82906,-8.69408 1.20493,-12.54408 0.37587,-3.85 0.88361,-10.37191 1.1283,-14.49313 0.40179,-6.76717 0.33174,-7.53656 -0.72304,-7.94131 -0.76831,-0.29483 -4.38578,1.19319 -10.57242,4.34891 -9.53409,4.86321 -10.08755,5.16381 -14.61893,7.94007 l -2.54779,1.56097 1.84907,2.45891 c 2.26003,3.00541 4.77701,5.82425 9.57984,10.72875 2.01666,2.05936 4.36537,4.64111 5.21935,5.73723 3.63646,4.66755 7.82223,8.82014 8.3699,8.30356 0.32409,-0.30569 0.82395,-3.05064 1.11079,-6.09988 z M 285.39784,159.68171 c 0.45643,-0.91666 1.22001,-2.13824 1.69684,-2.7146 0.47683,-0.57637 4.36004,-8.07637 8.62936,-16.66667 4.26932,-8.5903 8.87909,-17.56873 10.24395,-19.95206 2.92806,-5.11304 7.331,-13.33195 12.9442,-24.16278 2.23174,-4.30619 4.44208,-8.5666 4.91187,-9.46758 1.27807,-2.45108 0.49271,-4.27677 -4.05756,-9.43239 -2.27146,-2.57366 -5.47994,-6.29247 -7.12994,-8.26403 -1.65,-1.97156 -4.95115,-5.704582 -7.33589,-8.295602 -2.38474,-2.59102 -5.1101,-5.64998 -6.05637,-6.79768 -0.94626,-1.14771 -2.34492,-2.28493 -3.10814,-2.52716 -1.28985,-0.40939 -1.4151,-0.12133 -1.77698,4.08673 -0.21413,2.48994 -0.69416,6.92716 -1.06673,9.86049 -0.37256,2.933342 -0.98838,8.483342 -1.36848,12.333342 -0.3801,3.85 -1.13509,9.50394 -1.67777,12.56431 -0.54268,3.06037 -1.27119,8.46037 -1.61892,12 -0.34773,3.53962 -0.91131,7.48568 -1.25241,8.76902 -0.34109,1.28333 -0.80777,4.88333 -1.03705,8 -0.22928,3.11666 -0.70854,7.16666 -1.06502,9 -2.02648,10.42209 -4.44747,34.81811 -3.65435,36.82437 0.47392,1.19881 0.91206,0.60089 3.77939,-5.15771 z m 118.23872,-21.34695 c 0.36666,-0.27575 2.91666,-1.39774 5.66666,-2.49332 7.57302,-3.01704 17.6727,-7.96207 18.63855,-9.12584 0.73314,-0.88338 0.22365,-1.69282 -3.48346,-5.5343 -2.38821,-2.47477 -5.61336,-5.99959 -7.16699,-7.83292 -6.40146,-7.55392 -15.46497,-16.5131 -15.93538,-15.75195 -0.54084,0.87508 -2.08403,28.14619 -2.06503,36.49284 l 0.0123,5.40755 1.83334,-0.33035 c 1.00833,-0.18169 2.13333,-0.55596 2.5,-0.83171 z m -15.64341,-3.48638 c 0.0128,-0.0917 0.46715,-2.56667 1.00967,-5.5 0.60937,-3.29469 1.14878,-12.08678 1.41118,-23.00113 0.369,-15.34868 0.29168,-17.77824 -0.5891,-18.50922 -0.78076,-0.64797 -6.05151,-0.80098 -22.92549,-0.66553 -20.37126,0.16352 -21.92765,0.25902 -22.13921,1.35852 -0.14732,0.76565 2.16282,3.70394 6.55182,8.33334 14.46037,15.25238 17.95304,18.96714 26.65787,28.35299 7.769,8.37679 9.91106,10.43503 10.02326,9.63103 z M 382.30861,77.673 c 0.22958,-0.37146 -3.12772,-4.65136 -7.46065,-9.51088 -4.33294,-4.859532 -10.27807,-11.593472 -13.2114,-14.964322 -3.34957,-3.84917 -5.82927,-6.13559 -6.66667,-6.14702 -0.99288,-0.0136 -1.82259,1.04347 -3.24943,4.1397 -2.12461,4.61037 -8.45582,17.946932 -10.57287,22.271532 -2.47331,5.05235 -3.15589,4.88637 20.09537,4.88637 13.22404,0 20.79832,-0.24283 21.06565,-0.67538 z M 334.12407,67.18172 c 1.66023,-3.208342 3.5029,-6.733342 4.09482,-7.833342 3.35988,-6.24395 6.45005,-13.44407 6.28001,-14.63249 -0.19016,-1.32895 -0.64678,-1.37322 -16.19567,-1.57017 -8.8,-0.11147 -17.88723,-0.0113 -20.19383,0.22263 -3.9125,0.39678 -4.16326,0.52162 -3.73816,1.861 0.48542,1.5294 2.20565,3.55992 8.59865,10.14964 2.2,2.26769 6.25,6.6199 9,9.67157 6.91115,7.669292 7.21636,7.964492 8.23445,7.964492 0.49561,0 2.25949,-2.625 3.91973,-5.83333 z"
       id="path292" />
  </g>
</svg>
